<?xml version="1.0" encoding="UTF-8"?>
<svg xmlns="http://www.w3.org/2000/svg" xmlns:xlink="http://www.w3.org/1999/xlink" width="1477pt" height="872pt" viewBox="0 0 1477 872">
<rect width="100%" height="100%" fill="white"/>
<svg x="0.0" y="0.0" width="1477.0" height="804.0"
 viewBox="0.00 0.00 1477.00 804.00" xmlns="http://www.w3.org/2000/svg" xmlns:xlink="http://www.w3.org/1999/xlink">
<g id="graph0" class="graph" transform="scale(1 1) rotate(0) translate(4 799.5)">
<title>roadmap</title>
<polygon fill="white" stroke="none" points="-4,4 -4,-799.5 1473,-799.5 1473,4 -4,4"/>
<text xml:space="preserve" text-anchor="start" x="520" y="-767.8" font-family="Helvetica,sans-Serif" font-weight="bold" font-size="26.00">ATR</text>
<text xml:space="preserve" text-anchor="start" x="576.25" y="-767.8" font-family="Helvetica,sans-Serif" font-size="14.00"> &#160;</text>
<text xml:space="preserve" text-anchor="start" x="585.25" y="-767.8" font-family="Helvetica,sans-Serif" font-size="12.00" fill="#666666">Aikido Technique Recognition · roadmap (dependency graph)</text>
<g id="clust1" class="cluster">
<title>cluster_A</title>
<path fill="none" stroke="#b0b0b0" stroke-width="1.3" d="M20,-166C20,-166 104.5,-166 104.5,-166 110.5,-166 116.5,-172 116.5,-178 116.5,-178 116.5,-344 116.5,-344 116.5,-350 110.5,-356 104.5,-356 104.5,-356 20,-356 20,-356 14,-356 8,-350 8,-344 8,-344 8,-178 8,-178 8,-172 14,-166 20,-166"/>
<text xml:space="preserve" text-anchor="middle" x="56.88" y="-341.55" font-family="Helvetica,sans-Serif" font-size="11.00" fill="#666666">A &#160;Foundations</text>
</g>
<g id="clust2" class="cluster">
<title>cluster_B</title>
<path fill="none" stroke="#b0b0b0" stroke-width="1.3" d="M191.25,-674C191.25,-674 619,-674 619,-674 625,-674 631,-680 631,-686 631,-686 631,-736 631,-736 631,-742 625,-748 619,-748 619,-748 191.25,-748 191.25,-748 185.25,-748 179.25,-742 179.25,-736 179.25,-736 179.25,-686 179.25,-686 179.25,-680 185.25,-674 191.25,-674"/>
<text xml:space="preserve" text-anchor="middle" x="242.38" y="-733.55" font-family="Helvetica,sans-Serif" font-size="11.00" fill="#666666">B &#160;Knowledge graph</text>
</g>
<g id="clust3" class="cluster">
<title>cluster_C</title>
<path fill="none" stroke="#b0b0b0" stroke-width="1.3" d="M184.5,-224C184.5,-224 629.88,-224 629.88,-224 635.88,-224 641.88,-230 641.88,-236 641.88,-236 641.88,-354 641.88,-354 641.88,-360 635.88,-366 629.88,-366 629.88,-366 184.5,-366 184.5,-366 178.5,-366 172.5,-360 172.5,-354 172.5,-354 172.5,-236 172.5,-236 172.5,-230 178.5,-224 184.5,-224"/>
<text xml:space="preserve" text-anchor="middle" x="245.38" y="-351.55" font-family="Helvetica,sans-Serif" font-size="11.00" fill="#666666">C &#160;Taxonomy + sources</text>
</g>
<g id="clust4" class="cluster">
<title>cluster_D</title>
<path fill="none" stroke="#b0b0b0" stroke-width="1.3" d="M374.88,-26C374.88,-26 967.88,-26 967.88,-26 973.88,-26 979.88,-32 979.88,-38 979.88,-38 979.88,-204 979.88,-204 979.88,-210 973.88,-216 967.88,-216 967.88,-216 374.88,-216 374.88,-216 368.88,-216 362.88,-210 362.88,-204 362.88,-204 362.88,-38 362.88,-38 362.88,-32 368.88,-26 374.88,-26"/>
<text xml:space="preserve" text-anchor="middle" x="453" y="-201.55" font-family="Helvetica,sans-Serif" font-size="11.00" fill="#666666">D &#160;Movement language (AML)</text>
</g>
<g id="clust5" class="cluster">
<title>cluster_E</title>
<path fill="none" stroke="#b0b0b0" stroke-width="1.3" d="M361,-374C361,-374 637,-374 637,-374 643,-374 649,-380 649,-386 649,-386 649,-494 649,-494 649,-500 643,-506 637,-506 637,-506 361,-506 361,-506 355,-506 349,-500 349,-494 349,-494 349,-386 349,-386 349,-380 355,-374 361,-374"/>
<text xml:space="preserve" text-anchor="middle" x="393" y="-491.55" font-family="Helvetica,sans-Serif" font-size="11.00" fill="#666666">E &#160;Perception</text>
</g>
<g id="clust6" class="cluster">
<title>cluster_F</title>
<path fill="none" stroke="#b0b0b0" stroke-width="1.3" d="M720,-364C720,-364 968.25,-364 968.25,-364 974.25,-364 980.25,-370 980.25,-376 980.25,-376 980.25,-484 980.25,-484 980.25,-490 974.25,-496 968.25,-496 968.25,-496 720,-496 720,-496 714,-496 708,-490 708,-484 708,-484 708,-376 708,-376 708,-370 714,-364 720,-364"/>
<text xml:space="preserve" text-anchor="middle" x="739.25" y="-481.55" font-family="Helvetica,sans-Serif" font-size="11.00" fill="#666666">F &#160;Model</text>
</g>
<g id="clust7" class="cluster">
<title>cluster_G</title>
<path fill="none" stroke="#b0b0b0" stroke-width="1.3" d="M1048.25,-320C1048.25,-320 1449,-320 1449,-320 1455,-320 1461,-326 1461,-332 1461,-332 1461,-556 1461,-556 1461,-562 1455,-568 1449,-568 1449,-568 1048.25,-568 1048.25,-568 1042.25,-568 1036.25,-562 1036.25,-556 1036.25,-556 1036.25,-332 1036.25,-332 1036.25,-326 1042.25,-320 1048.25,-320"/>
<text xml:space="preserve" text-anchor="middle" x="1073.12" y="-553.55" font-family="Helvetica,sans-Serif" font-size="11.00" fill="#666666">G &#160;Product</text>
</g>
<!-- A1 -->
<g id="node1" class="node">
<title>A1</title>
<path fill="#cfe8cf" stroke="#2e7d32" d="M96.5,-268C96.5,-268 28,-268 28,-268 22,-268 16,-262 16,-256 16,-256 16,-244 16,-244 16,-238 22,-232 28,-232 28,-232 96.5,-232 96.5,-232 102.5,-232 108.5,-238 108.5,-244 108.5,-244 108.5,-256 108.5,-256 108.5,-262 102.5,-268 96.5,-268"/>
<text xml:space="preserve" text-anchor="middle" x="62.25" y="-253.25" font-family="Helvetica,sans-Serif" font-size="10.00">A1 Conventions</text>
<text xml:space="preserve" text-anchor="middle" x="62.25" y="-240.5" font-family="Helvetica,sans-Serif" font-size="10.00">+ repo</text>
</g>
<!-- B1 -->
<g id="node4" class="node">
<title>B1</title>
<path fill="#cfe8cf" stroke="#2e7d32" d="M266.25,-718C266.25,-718 199.25,-718 199.25,-718 193.25,-718 187.25,-712 187.25,-706 187.25,-706 187.25,-694 187.25,-694 187.25,-688 193.25,-682 199.25,-682 199.25,-682 266.25,-682 266.25,-682 272.25,-682 278.25,-688 278.25,-694 278.25,-694 278.25,-706 278.25,-706 278.25,-712 272.25,-718 266.25,-718"/>
<text xml:space="preserve" text-anchor="middle" x="232.75" y="-703.25" font-family="Helvetica,sans-Serif" font-size="10.00">B1 Lineage +</text>
<text xml:space="preserve" text-anchor="middle" x="232.75" y="-690.5" font-family="Helvetica,sans-Serif" font-size="10.00">federation map</text>
</g>
<!-- A1&#45;&gt;B1 -->
<g id="edge1" class="edge">
<title>A1&#45;&gt;B1</title>
<path fill="none" stroke="#aab0b6" d="M105.37,-268.48C109.53,-271.54 113.36,-275.04 116.5,-279 141.87,-311.04 206.33,-588.07 225.98,-674.41"/>
<polygon fill="#aab0b6" stroke="#aab0b6" points="223.92,-674.84 227.3,-680.22 228.02,-673.91 223.92,-674.84"/>
</g>
<!-- C1 -->
<g id="node7" class="node">
<title>C1</title>
<path fill="#cfe8cf" stroke="#2e7d32" d="M273,-268C273,-268 192.5,-268 192.5,-268 186.5,-268 180.5,-262 180.5,-256 180.5,-256 180.5,-244 180.5,-244 180.5,-238 186.5,-232 192.5,-232 192.5,-232 273,-232 273,-232 279,-232 285,-238 285,-244 285,-244 285,-256 285,-256 285,-262 279,-268 273,-268"/>
<text xml:space="preserve" text-anchor="middle" x="232.75" y="-253.25" font-family="Helvetica,sans-Serif" font-size="10.00">C1 Book ingestion</text>
<text xml:space="preserve" text-anchor="middle" x="232.75" y="-240.5" font-family="Helvetica,sans-Serif" font-size="10.00">pipeline</text>
</g>
<!-- A1&#45;&gt;C1 -->
<g id="edge2" class="edge">
<title>A1&#45;&gt;C1</title>
<path fill="none" stroke="#aab0b6" d="M108.85,-250C128.55,-250 151.86,-250 172.85,-250"/>
<polygon fill="#aab0b6" stroke="#aab0b6" points="172.65,-252.1 178.65,-250 172.65,-247.9 172.65,-252.1"/>
</g>
<!-- D1 -->
<g id="node12" class="node">
<title>D1</title>
<path fill="#cfe8cf" stroke="#2e7d32" d="M437.88,-155C437.88,-155 382.88,-155 382.88,-155 376.88,-155 370.88,-149 370.88,-143 370.88,-143 370.88,-131 370.88,-131 370.88,-125 376.88,-119 382.88,-119 382.88,-119 437.88,-119 437.88,-119 443.88,-119 449.88,-125 449.88,-131 449.88,-131 449.88,-143 449.88,-143 449.88,-149 443.88,-155 437.88,-155"/>
<text xml:space="preserve" text-anchor="middle" x="410.38" y="-133.88" font-family="Helvetica,sans-Serif" font-size="10.00">D1 AML spec</text>
</g>
<!-- A1&#45;&gt;D1 -->
<g id="edge3" class="edge">
<title>A1&#45;&gt;D1</title>
<path fill="none" stroke="#aab0b6" d="M108.86,-235.11C175.1,-213.49 297.24,-173.61 363.59,-151.95"/>
<polygon fill="#aab0b6" stroke="#aab0b6" points="364.12,-153.98 369.17,-150.13 362.82,-149.99 364.12,-153.98"/>
</g>
<!-- A2 -->
<g id="node2" class="node">
<title>A2</title>
<path fill="#fff3c4" stroke="#b8860b" d="M95.38,-210C95.38,-210 29.12,-210 29.12,-210 23.12,-210 17.12,-204 17.12,-198 17.12,-198 17.12,-186 17.12,-186 17.12,-180 23.12,-174 29.12,-174 29.12,-174 95.38,-174 95.38,-174 101.38,-174 107.38,-180 107.38,-186 107.38,-186 107.38,-198 107.38,-198 107.38,-204 101.38,-210 95.38,-210"/>
<text xml:space="preserve" text-anchor="middle" x="62.25" y="-195.25" font-family="Helvetica,sans-Serif" font-size="10.00">A2 Governance</text>
<text xml:space="preserve" text-anchor="middle" x="62.25" y="-182.5" font-family="Helvetica,sans-Serif" font-size="10.00">+ consent</text>
</g>
<!-- E4 -->
<g id="node21" class="node">
<title>E4</title>
<path fill="#eeeeee" stroke="#999999" d="M451.75,-476C451.75,-476 369,-476 369,-476 363,-476 357,-470 357,-464 357,-464 357,-452 357,-452 357,-446 363,-440 369,-440 369,-440 451.75,-440 451.75,-440 457.75,-440 463.75,-446 463.75,-452 463.75,-452 463.75,-464 463.75,-464 463.75,-470 457.75,-476 451.75,-476"/>
<text xml:space="preserve" text-anchor="middle" x="410.38" y="-461.25" font-family="Helvetica,sans-Serif" font-size="10.00">E4 Video ingestion</text>
<text xml:space="preserve" text-anchor="middle" x="410.38" y="-448.5" font-family="Helvetica,sans-Serif" font-size="10.00">+ agreements</text>
</g>
<!-- A2&#45;&gt;E4 -->
<g id="edge4" class="edge">
<title>A2&#45;&gt;E4</title>
<path fill="none" stroke="#aab0b6" d="M104.5,-210.39C108.92,-213.5 113.05,-217.02 116.5,-221 163.14,-274.75 122.05,-320.82 172.5,-371 220.41,-418.66 296.58,-440.47 349.56,-450.28"/>
<polygon fill="#aab0b6" stroke="#aab0b6" points="349.11,-452.33 355.39,-451.32 349.85,-448.2 349.11,-452.33"/>
</g>
<!-- G7 -->
<g id="node32" class="node">
<title>G7</title>
<path fill="#eeeeee" stroke="#999999" d="M1441,-393C1441,-393 1372.5,-393 1372.5,-393 1366.5,-393 1360.5,-387 1360.5,-381 1360.5,-381 1360.5,-369 1360.5,-369 1360.5,-363 1366.5,-357 1372.5,-357 1372.5,-357 1441,-357 1441,-357 1447,-357 1453,-363 1453,-369 1453,-369 1453,-381 1453,-381 1453,-387 1447,-393 1441,-393"/>
<text xml:space="preserve" text-anchor="middle" x="1406.75" y="-378.25" font-family="Helvetica,sans-Serif" font-size="10.00">G7 Contribution</text>
<text xml:space="preserve" text-anchor="middle" x="1406.75" y="-365.5" font-family="Helvetica,sans-Serif" font-size="10.00">loop</text>
</g>
<!-- A2&#45;&gt;G7 -->
<g id="edge5" class="edge">
<title>A2&#45;&gt;G7</title>
<path fill="none" stroke="#aab0b6" d="M80.8,-173.59C128.62,-125.53 267.13,0 409.38,0 409.38,0 409.38,0 1082.5,0 1267.52,0 1369.94,-265.13 1397.85,-349.52"/>
<polygon fill="#aab0b6" stroke="#aab0b6" points="1395.85,-350.17 1399.71,-355.22 1399.84,-348.86 1395.85,-350.17"/>
</g>
<!-- A3 -->
<g id="node3" class="node">
<title>A3</title>
<path fill="#fff3c4" stroke="#b8860b" d="M85.62,-326C85.62,-326 38.88,-326 38.88,-326 32.88,-326 26.88,-320 26.88,-314 26.88,-314 26.88,-302 26.88,-302 26.88,-296 32.88,-290 38.88,-290 38.88,-290 85.62,-290 85.62,-290 91.62,-290 97.62,-296 97.62,-302 97.62,-302 97.62,-314 97.62,-314 97.62,-320 91.62,-326 85.62,-326"/>
<text xml:space="preserve" text-anchor="middle" x="62.25" y="-311.25" font-family="Helvetica,sans-Serif" font-size="10.00">A3 Teacher</text>
<text xml:space="preserve" text-anchor="middle" x="62.25" y="-298.5" font-family="Helvetica,sans-Serif" font-size="10.00">onboarding</text>
</g>
<!-- B2 -->
<g id="node5" class="node">
<title>B2</title>
<path fill="#fff3c4" stroke="#b8860b" d="M437.88,-718C437.88,-718 382.88,-718 382.88,-718 376.88,-718 370.88,-712 370.88,-706 370.88,-706 370.88,-694 370.88,-694 370.88,-688 376.88,-682 382.88,-682 382.88,-682 437.88,-682 437.88,-682 443.88,-682 449.88,-688 449.88,-694 449.88,-694 449.88,-706 449.88,-706 449.88,-712 443.88,-718 437.88,-718"/>
<text xml:space="preserve" text-anchor="middle" x="410.38" y="-703.25" font-family="Helvetica,sans-Serif" font-size="10.00">B2 Reconcile</text>
<text xml:space="preserve" text-anchor="middle" x="410.38" y="-690.5" font-family="Helvetica,sans-Serif" font-size="10.00">duplicates</text>
</g>
<!-- B1&#45;&gt;B2 -->
<g id="edge6" class="edge">
<title>B1&#45;&gt;B2</title>
<path fill="none" stroke="#aab0b6" d="M278.52,-700C304.53,-700 337.24,-700 363.44,-700"/>
<polygon fill="#aab0b6" stroke="#aab0b6" points="363.14,-702.1 369.14,-700 363.14,-697.9 363.14,-702.1"/>
</g>
<!-- B1&#45;&gt;E4 -->
<g id="edge30" class="edge">
<title>B1&#45;&gt;E4</title>
<path fill="none" stroke="#aab0b6" d="M246.95,-681.81C278.16,-638.8 356.52,-530.82 391.75,-482.29"/>
<polygon fill="#aab0b6" stroke="#aab0b6" points="393.31,-483.71 395.13,-477.63 389.91,-481.25 393.31,-483.71"/>
</g>
<!-- G4 -->
<g id="node29" class="node">
<title>G4</title>
<path fill="#eeeeee" stroke="#999999" d="M1103.75,-538C1103.75,-538 1059.25,-538 1059.25,-538 1053.25,-538 1047.25,-532 1047.25,-526 1047.25,-526 1047.25,-514 1047.25,-514 1047.25,-508 1053.25,-502 1059.25,-502 1059.25,-502 1103.75,-502 1103.75,-502 1109.75,-502 1115.75,-508 1115.75,-514 1115.75,-514 1115.75,-526 1115.75,-526 1115.75,-532 1109.75,-538 1103.75,-538"/>
<text xml:space="preserve" text-anchor="middle" x="1081.5" y="-523.25" font-family="Helvetica,sans-Serif" font-size="10.00">G4 Search:</text>
<text xml:space="preserve" text-anchor="middle" x="1081.5" y="-510.5" font-family="Helvetica,sans-Serif" font-size="10.00">structured</text>
</g>
<!-- B1&#45;&gt;G4 -->
<g id="edge31" class="edge">
<title>B1&#45;&gt;G4</title>
<path fill="none" stroke="#aab0b6" d="M278.57,-687.05C299.77,-681.36 325.52,-675.06 349,-671 453.88,-652.85 480.94,-648 587.38,-648 587.38,-648 587.38,-648 762.12,-648 873.98,-648 993.03,-579.14 1048.54,-542.43"/>
<polygon fill="#aab0b6" stroke="#aab0b6" points="1049.59,-544.26 1053.41,-539.18 1047.26,-540.77 1049.59,-544.26"/>
</g>
<!-- B3 -->
<g id="node6" class="node">
<title>B3</title>
<path fill="#eeeeee" stroke="#999999" d="M611,-718C611,-718 565.75,-718 565.75,-718 559.75,-718 553.75,-712 553.75,-706 553.75,-706 553.75,-694 553.75,-694 553.75,-688 559.75,-682 565.75,-682 565.75,-682 611,-682 611,-682 617,-682 623,-688 623,-694 623,-694 623,-706 623,-706 623,-712 617,-718 611,-718"/>
<text xml:space="preserve" text-anchor="middle" x="588.38" y="-703.25" font-family="Helvetica,sans-Serif" font-size="10.00">B3 Deepen</text>
<text xml:space="preserve" text-anchor="middle" x="588.38" y="-690.5" font-family="Helvetica,sans-Serif" font-size="10.00">lineage</text>
</g>
<!-- B2&#45;&gt;B3 -->
<g id="edge7" class="edge">
<title>B2&#45;&gt;B3</title>
<path fill="none" stroke="#aab0b6" d="M450,-700C478.45,-700 517.08,-700 546.13,-700"/>
<polygon fill="#aab0b6" stroke="#aab0b6" points="545.79,-702.1 551.79,-700 545.79,-697.9 545.79,-702.1"/>
</g>
<!-- C2 -->
<g id="node8" class="node">
<title>C2</title>
<path fill="#cfe8cf" stroke="#2e7d32" d="M444.25,-304C444.25,-304 376.5,-304 376.5,-304 370.5,-304 364.5,-298 364.5,-292 364.5,-292 364.5,-280 364.5,-280 364.5,-274 370.5,-268 376.5,-268 376.5,-268 444.25,-268 444.25,-268 450.25,-268 456.25,-274 456.25,-280 456.25,-280 456.25,-292 456.25,-292 456.25,-298 450.25,-304 444.25,-304"/>
<text xml:space="preserve" text-anchor="middle" x="410.38" y="-289.25" font-family="Helvetica,sans-Serif" font-size="10.00">C2 Saito corpus</text>
<text xml:space="preserve" text-anchor="middle" x="410.38" y="-276.5" font-family="Helvetica,sans-Serif" font-size="10.00">ingested</text>
</g>
<!-- C1&#45;&gt;C2 -->
<g id="edge8" class="edge">
<title>C1&#45;&gt;C2</title>
<path fill="none" stroke="#aab0b6" d="M285.49,-260.61C308.04,-265.23 334.44,-270.64 357.05,-275.28"/>
<polygon fill="#aab0b6" stroke="#aab0b6" points="356.47,-277.3 362.77,-276.45 357.32,-273.18 356.47,-277.3"/>
</g>
<!-- C3 -->
<g id="node9" class="node">
<title>C3</title>
<path fill="#cfe8cf" stroke="#2e7d32" d="M621.88,-278C621.88,-278 554.88,-278 554.88,-278 548.88,-278 542.88,-272 542.88,-266 542.88,-266 542.88,-254 542.88,-254 542.88,-248 548.88,-242 554.88,-242 554.88,-242 621.88,-242 621.88,-242 627.88,-242 633.88,-248 633.88,-254 633.88,-254 633.88,-266 633.88,-266 633.88,-272 627.88,-278 621.88,-278"/>
<text xml:space="preserve" text-anchor="middle" x="588.38" y="-263.25" font-family="Helvetica,sans-Serif" font-size="10.00">C3 Observation</text>
<text xml:space="preserve" text-anchor="middle" x="588.38" y="-250.5" font-family="Helvetica,sans-Serif" font-size="10.00">provenance</text>
</g>
<!-- C2&#45;&gt;C3 -->
<g id="edge9" class="edge">
<title>C2&#45;&gt;C3</title>
<path fill="none" stroke="#aab0b6" d="M456.7,-279.3C480.71,-275.76 510.31,-271.38 535.26,-267.7"/>
<polygon fill="#aab0b6" stroke="#aab0b6" points="535.38,-269.8 541.01,-266.85 534.77,-265.65 535.38,-269.8"/>
</g>
<!-- C4 -->
<g id="node10" class="node">
<title>C4</title>
<path fill="#fff3c4" stroke="#b8860b" d="M611,-336C611,-336 565.75,-336 565.75,-336 559.75,-336 553.75,-330 553.75,-324 553.75,-324 553.75,-312 553.75,-312 553.75,-306 559.75,-300 565.75,-300 565.75,-300 611,-300 611,-300 617,-300 623,-306 623,-312 623,-312 623,-324 623,-324 623,-330 617,-336 611,-336"/>
<text xml:space="preserve" text-anchor="middle" x="588.38" y="-321.25" font-family="Helvetica,sans-Serif" font-size="10.00">C4 Teacher</text>
<text xml:space="preserve" text-anchor="middle" x="588.38" y="-308.5" font-family="Helvetica,sans-Serif" font-size="10.00">ratification</text>
</g>
<!-- C2&#45;&gt;C4 -->
<g id="edge10" class="edge">
<title>C2&#45;&gt;C4</title>
<path fill="none" stroke="#aab0b6" d="M456.7,-294.24C484.26,-299.25 519.18,-305.6 545.99,-310.48"/>
<polygon fill="#aab0b6" stroke="#aab0b6" points="545.56,-312.53 551.83,-311.54 546.31,-308.4 545.56,-312.53"/>
</g>
<!-- D3 -->
<g id="node14" class="node">
<title>D3</title>
<path fill="#cfe0f5" stroke="#1565c0" d="M797.25,-128C797.25,-128 725,-128 725,-128 719,-128 713,-122 713,-116 713,-116 713,-104 713,-104 713,-98 719,-92 725,-92 725,-92 797.25,-92 797.25,-92 803.25,-92 809.25,-98 809.25,-104 809.25,-104 809.25,-116 809.25,-116 809.25,-122 803.25,-128 797.25,-128"/>
<text xml:space="preserve" text-anchor="middle" x="761.12" y="-113.25" font-family="Helvetica,sans-Serif" font-size="10.00">D3 Motif lexicon</text>
<text xml:space="preserve" text-anchor="middle" x="761.12" y="-100.5" font-family="Helvetica,sans-Serif" font-size="10.00">from books</text>
</g>
<!-- C2&#45;&gt;D3 -->
<g id="edge11" class="edge">
<title>C2&#45;&gt;D3</title>
<path fill="none" stroke="#aab0b6" d="M447.71,-267.66C512.53,-234.95 647.77,-166.7 717.11,-131.71"/>
<polygon fill="#aab0b6" stroke="#aab0b6" points="717.85,-133.69 722.26,-129.11 715.96,-129.94 717.85,-133.69"/>
</g>
<!-- E3 -->
<g id="node20" class="node">
<title>E3</title>
<path fill="#eeeeee" stroke="#999999" d="M615.5,-418C615.5,-418 561.25,-418 561.25,-418 555.25,-418 549.25,-412 549.25,-406 549.25,-406 549.25,-394 549.25,-394 549.25,-388 555.25,-382 561.25,-382 561.25,-382 615.5,-382 615.5,-382 621.5,-382 627.5,-388 627.5,-394 627.5,-394 627.5,-406 627.5,-406 627.5,-412 621.5,-418 615.5,-418"/>
<text xml:space="preserve" text-anchor="middle" x="588.38" y="-403.25" font-family="Helvetica,sans-Serif" font-size="10.00">E3 Keyframe</text>
<text xml:space="preserve" text-anchor="middle" x="588.38" y="-390.5" font-family="Helvetica,sans-Serif" font-size="10.00">ground truth</text>
</g>
<!-- C2&#45;&gt;E3 -->
<g id="edge12" class="edge">
<title>C2&#45;&gt;E3</title>
<path fill="none" stroke="#aab0b6" d="M436.67,-304.25C461.5,-321.93 500.64,-349.2 535.75,-371 539.39,-373.26 543.21,-375.55 547.05,-377.8"/>
<polygon fill="#aab0b6" stroke="#aab0b6" points="545.97,-379.6 552.21,-380.79 548.07,-375.97 545.97,-379.6"/>
</g>
<!-- C3&#45;&gt;G4 -->
<g id="edge41" class="edge">
<title>C3&#45;&gt;G4</title>
<path fill="none" stroke="#aab0b6" d="M634.1,-266.25C725.17,-279.77 927.97,-314.17 980.25,-359 1028.63,-400.48 995.39,-442.09 1036.25,-491 1038,-493.1 1039.94,-495.1 1042.01,-497"/>
<polygon fill="#aab0b6" stroke="#aab0b6" points="1040.61,-498.56 1046.55,-500.81 1043.31,-495.35 1040.61,-498.56"/>
</g>
<!-- G6 -->
<g id="node31" class="node">
<title>G6</title>
<path fill="#eeeeee" stroke="#999999" d="M1429.75,-465C1429.75,-465 1383.75,-465 1383.75,-465 1377.75,-465 1371.75,-459 1371.75,-453 1371.75,-453 1371.75,-441 1371.75,-441 1371.75,-435 1377.75,-429 1383.75,-429 1383.75,-429 1429.75,-429 1429.75,-429 1435.75,-429 1441.75,-435 1441.75,-441 1441.75,-441 1441.75,-453 1441.75,-453 1441.75,-459 1435.75,-465 1429.75,-465"/>
<text xml:space="preserve" text-anchor="middle" x="1406.75" y="-450.25" font-family="Helvetica,sans-Serif" font-size="10.00">G6 Teacher</text>
<text xml:space="preserve" text-anchor="middle" x="1406.75" y="-437.5" font-family="Helvetica,sans-Serif" font-size="10.00">over time</text>
</g>
<!-- C3&#45;&gt;G6 -->
<g id="edge42" class="edge">
<title>C3&#45;&gt;G6</title>
<path fill="none" stroke="#aab0b6" d="M634.24,-256.94C698.7,-252.83 821.27,-246 925.75,-246 925.75,-246 925.75,-246 1082.5,-246 1179.34,-246 1208.89,-261.87 1288.5,-317 1329.76,-345.57 1326.25,-367.31 1360.5,-404 1366.62,-410.56 1373.52,-417.38 1380.05,-423.59"/>
<polygon fill="#aab0b6" stroke="#aab0b6" points="1378.52,-425.03 1384.32,-427.62 1381.4,-421.98 1378.52,-425.03"/>
</g>
<!-- C4&#45;&gt;D3 -->
<g id="edge13" class="edge">
<title>C4&#45;&gt;D3</title>
<path fill="none" stroke="#aab0b6" d="M623.2,-306.83C632.51,-302.45 641.97,-296.61 649,-289 697.64,-236.41 660.82,-192.91 708,-139 709.96,-136.76 712.13,-134.67 714.44,-132.7"/>
<polygon fill="#aab0b6" stroke="#aab0b6" points="715.41,-134.61 718.87,-129.28 712.84,-131.29 715.41,-134.61"/>
</g>
<!-- F1 -->
<g id="node22" class="node">
<title>F1</title>
<path fill="#eeeeee" stroke="#999999" d="M794.25,-466C794.25,-466 728,-466 728,-466 722,-466 716,-460 716,-454 716,-454 716,-442 716,-442 716,-436 722,-430 728,-430 728,-430 794.25,-430 794.25,-430 800.25,-430 806.25,-436 806.25,-442 806.25,-442 806.25,-454 806.25,-454 806.25,-460 800.25,-466 794.25,-466"/>
<text xml:space="preserve" text-anchor="middle" x="761.12" y="-451.25" font-family="Helvetica,sans-Serif" font-size="10.00">F1 Labeled</text>
<text xml:space="preserve" text-anchor="middle" x="761.12" y="-438.5" font-family="Helvetica,sans-Serif" font-size="10.00">motion dataset</text>
</g>
<!-- C4&#45;&gt;F1 -->
<g id="edge14" class="edge">
<title>C4&#45;&gt;F1</title>
<path fill="none" stroke="#aab0b6" d="M610.82,-336.35C644.3,-364.98 705.42,-417.21 708,-419 711.3,-421.29 714.79,-423.55 718.34,-425.73"/>
<polygon fill="#aab0b6" stroke="#aab0b6" points="717.25,-427.53 723.48,-428.81 719.41,-423.92 717.25,-427.53"/>
</g>
<!-- F2 -->
<g id="node23" class="node">
<title>F2</title>
<path fill="#eeeeee" stroke="#999999" d="M960.25,-408C960.25,-408 893.25,-408 893.25,-408 887.25,-408 881.25,-402 881.25,-396 881.25,-396 881.25,-384 881.25,-384 881.25,-378 887.25,-372 893.25,-372 893.25,-372 960.25,-372 960.25,-372 966.25,-372 972.25,-378 972.25,-384 972.25,-384 972.25,-396 972.25,-396 972.25,-402 966.25,-408 960.25,-408"/>
<text xml:space="preserve" text-anchor="middle" x="926.75" y="-393.25" font-family="Helvetica,sans-Serif" font-size="10.00">F2 Parse model</text>
<text xml:space="preserve" text-anchor="middle" x="926.75" y="-380.5" font-family="Helvetica,sans-Serif" font-size="10.00">(slots)</text>
</g>
<!-- C4&#45;&gt;F2 -->
<g id="edge15" class="edge">
<title>C4&#45;&gt;F2</title>
<path fill="none" stroke="#aab0b6" d="M623.39,-324.1C666.69,-331.99 743.75,-346.45 809.25,-361 830.36,-365.69 853.5,-371.34 873.55,-376.4"/>
<polygon fill="#aab0b6" stroke="#aab0b6" points="872.99,-378.43 879.32,-377.87 874.02,-374.36 872.99,-378.43"/>
</g>
<!-- F4 -->
<g id="node25" class="node">
<title>F4</title>
<path fill="#eeeeee" stroke="#999999" d="M790.5,-408C790.5,-408 731.75,-408 731.75,-408 725.75,-408 719.75,-402 719.75,-396 719.75,-396 719.75,-384 719.75,-384 719.75,-378 725.75,-372 731.75,-372 731.75,-372 790.5,-372 790.5,-372 796.5,-372 802.5,-378 802.5,-384 802.5,-384 802.5,-396 802.5,-396 802.5,-402 796.5,-408 790.5,-408"/>
<text xml:space="preserve" text-anchor="middle" x="761.12" y="-393.25" font-family="Helvetica,sans-Serif" font-size="10.00">F4 Evaluation</text>
<text xml:space="preserve" text-anchor="middle" x="761.12" y="-380.5" font-family="Helvetica,sans-Serif" font-size="10.00">set</text>
</g>
<!-- C4&#45;&gt;F4 -->
<g id="edge16" class="edge">
<title>C4&#45;&gt;F4</title>
<path fill="none" stroke="#aab0b6" d="M623.11,-332.22C648.75,-343.04 684.35,-358.05 712.84,-370.06"/>
<polygon fill="#aab0b6" stroke="#aab0b6" points="711.8,-371.9 718.15,-372.3 713.44,-368.03 711.8,-371.9"/>
</g>
<!-- C5 -->
<g id="node11" class="node">
<title>C5</title>
<path fill="#cfe0f5" stroke="#1565c0" d="M272.25,-336.12C272.25,-336.12 193.25,-336.12 193.25,-336.12 187.25,-336.12 181.25,-330.12 181.25,-324.12 181.25,-324.12 181.25,-301.88 181.25,-301.88 181.25,-295.88 187.25,-289.88 193.25,-289.88 193.25,-289.88 272.25,-289.88 272.25,-289.88 278.25,-289.88 284.25,-295.88 284.25,-301.88 284.25,-301.88 284.25,-324.12 284.25,-324.12 284.25,-330.12 278.25,-336.12 272.25,-336.12"/>
<text xml:space="preserve" text-anchor="middle" x="232.75" y="-322.62" font-family="Helvetica,sans-Serif" font-size="10.00">C5 Planned books</text>
<text xml:space="preserve" text-anchor="middle" x="232.75" y="-309.88" font-family="Helvetica,sans-Serif" font-size="10.00">(8: Yoshinkan,</text>
<text xml:space="preserve" text-anchor="middle" x="232.75" y="-297.12" font-family="Helvetica,sans-Serif" font-size="10.00">Aikikai, Ki, USAF)</text>
</g>
<!-- C5&#45;&gt;C2 -->
<g id="edge17" class="edge">
<title>C5&#45;&gt;C2</title>
<path fill="none" stroke="#aab0b6" d="M284.55,-305.19C307.22,-301.71 333.92,-297.6 356.79,-294.08"/>
<polygon fill="#aab0b6" stroke="#aab0b6" points="356.97,-296.18 362.58,-293.19 356.33,-292.03 356.97,-296.18"/>
</g>
<!-- D2 -->
<g id="node13" class="node">
<title>D2</title>
<path fill="#cfe8cf" stroke="#2e7d32" d="M611.38,-139C611.38,-139 565.38,-139 565.38,-139 559.38,-139 553.38,-133 553.38,-127 553.38,-127 553.38,-115 553.38,-115 553.38,-109 559.38,-103 565.38,-103 565.38,-103 611.38,-103 611.38,-103 617.38,-103 623.38,-109 623.38,-115 623.38,-115 623.38,-127 623.38,-127 623.38,-133 617.38,-139 611.38,-139"/>
<text xml:space="preserve" text-anchor="middle" x="588.38" y="-124.25" font-family="Helvetica,sans-Serif" font-size="10.00">D2 Kineme</text>
<text xml:space="preserve" text-anchor="middle" x="588.38" y="-111.5" font-family="Helvetica,sans-Serif" font-size="10.00">alphabet</text>
</g>
<!-- D1&#45;&gt;D2 -->
<g id="edge18" class="edge">
<title>D1&#45;&gt;D2</title>
<path fill="none" stroke="#aab0b6" d="M450,-133.49C478.36,-130.91 516.83,-127.41 545.85,-124.78"/>
<polygon fill="#aab0b6" stroke="#aab0b6" points="545.72,-126.9 551.5,-124.26 545.34,-122.71 545.72,-126.9"/>
</g>
<!-- D2&#45;&gt;D3 -->
<g id="edge19" class="edge">
<title>D2&#45;&gt;D3</title>
<path fill="none" stroke="#aab0b6" d="M623.52,-118.8C646.91,-117.29 678.46,-115.26 705.34,-113.53"/>
<polygon fill="#aab0b6" stroke="#aab0b6" points="705.42,-115.63 711.27,-113.15 705.15,-111.44 705.42,-115.63"/>
</g>
<!-- D4 -->
<g id="node15" class="node">
<title>D4</title>
<path fill="#eeeeee" stroke="#999999" d="M794.25,-70C794.25,-70 728,-70 728,-70 722,-70 716,-64 716,-58 716,-58 716,-46 716,-46 716,-40 722,-34 728,-34 728,-34 794.25,-34 794.25,-34 800.25,-34 806.25,-40 806.25,-46 806.25,-46 806.25,-58 806.25,-58 806.25,-64 800.25,-70 794.25,-70"/>
<text xml:space="preserve" text-anchor="middle" x="761.12" y="-55.25" font-family="Helvetica,sans-Serif" font-size="10.00">D4 Grammar +</text>
<text xml:space="preserve" text-anchor="middle" x="761.12" y="-42.5" font-family="Helvetica,sans-Serif" font-size="10.00">renderer</text>
</g>
<!-- D2&#45;&gt;D4 -->
<g id="edge20" class="edge">
<title>D2&#45;&gt;D4</title>
<path fill="none" stroke="#aab0b6" d="M623.52,-107.2C647.92,-97.34 681.19,-83.9 708.78,-72.75"/>
<polygon fill="#aab0b6" stroke="#aab0b6" points="709.49,-74.73 714.26,-70.53 707.91,-70.83 709.49,-74.73"/>
</g>
<!-- D6 -->
<g id="node17" class="node">
<title>D6</title>
<path fill="#eeeeee" stroke="#999999" d="M784.12,-186C784.12,-186 738.12,-186 738.12,-186 732.12,-186 726.12,-180 726.12,-174 726.12,-174 726.12,-162 726.12,-162 726.12,-156 732.12,-150 738.12,-150 738.12,-150 784.12,-150 784.12,-150 790.12,-150 796.12,-156 796.12,-162 796.12,-162 796.12,-174 796.12,-174 796.12,-180 790.12,-186 784.12,-186"/>
<text xml:space="preserve" text-anchor="middle" x="761.12" y="-171.25" font-family="Helvetica,sans-Serif" font-size="10.00">D6 Kineme</text>
<text xml:space="preserve" text-anchor="middle" x="761.12" y="-158.5" font-family="Helvetica,sans-Serif" font-size="10.00">detectors</text>
</g>
<!-- D2&#45;&gt;D6 -->
<g id="edge21" class="edge">
<title>D2&#45;&gt;D6</title>
<path fill="none" stroke="#aab0b6" d="M623.52,-130.4C650.88,-137.93 689.39,-148.53 718.55,-156.56"/>
<polygon fill="#aab0b6" stroke="#aab0b6" points="717.95,-158.57 724.29,-158.14 719.06,-154.52 717.95,-158.57"/>
</g>
<!-- D5 -->
<g id="node16" class="node">
<title>D5</title>
<path fill="#eeeeee" stroke="#999999" d="M959.88,-99C959.88,-99 893.62,-99 893.62,-99 887.62,-99 881.62,-93 881.62,-87 881.62,-87 881.62,-75 881.62,-75 881.62,-69 887.62,-63 893.62,-63 893.62,-63 959.88,-63 959.88,-63 965.88,-63 971.88,-69 971.88,-75 971.88,-75 971.88,-87 971.88,-87 971.88,-93 965.88,-99 959.88,-99"/>
<text xml:space="preserve" text-anchor="middle" x="926.75" y="-84.25" font-family="Helvetica,sans-Serif" font-size="10.00">D5 Kote&#45;gaeshi</text>
<text xml:space="preserve" text-anchor="middle" x="926.75" y="-71.5" font-family="Helvetica,sans-Serif" font-size="10.00">trial</text>
</g>
<!-- D3&#45;&gt;D5 -->
<g id="edge22" class="edge">
<title>D3&#45;&gt;D5</title>
<path fill="none" stroke="#aab0b6" d="M809.45,-101.61C829.72,-98.02 853.43,-93.82 874.15,-90.15"/>
<polygon fill="#aab0b6" stroke="#aab0b6" points="874.3,-92.25 879.85,-89.14 873.57,-88.12 874.3,-92.25"/>
</g>
<!-- D4&#45;&gt;D5 -->
<g id="edge23" class="edge">
<title>D4&#45;&gt;D5</title>
<path fill="none" stroke="#aab0b6" d="M806.4,-59.85C827.24,-63.54 852.22,-67.97 873.92,-71.81"/>
<polygon fill="#aab0b6" stroke="#aab0b6" points="873.39,-73.85 879.66,-72.83 874.12,-69.72 873.39,-73.85"/>
</g>
<!-- G2 -->
<g id="node27" class="node">
<title>G2</title>
<path fill="#eeeeee" stroke="#999999" d="M1261.88,-364C1261.88,-364 1217.38,-364 1217.38,-364 1211.38,-364 1205.38,-358 1205.38,-352 1205.38,-352 1205.38,-340 1205.38,-340 1205.38,-334 1211.38,-328 1217.38,-328 1217.38,-328 1261.88,-328 1261.88,-328 1267.88,-328 1273.88,-334 1273.88,-340 1273.88,-340 1273.88,-352 1273.88,-352 1273.88,-358 1267.88,-364 1261.88,-364"/>
<text xml:space="preserve" text-anchor="middle" x="1239.62" y="-349.25" font-family="Helvetica,sans-Serif" font-size="10.00">G2 Live</text>
<text xml:space="preserve" text-anchor="middle" x="1239.62" y="-336.5" font-family="Helvetica,sans-Serif" font-size="10.00">annotation</text>
</g>
<!-- D6&#45;&gt;G2 -->
<g id="edge38" class="edge">
<title>D6&#45;&gt;G2</title>
<path fill="none" stroke="#aab0b6" d="M796.39,-180.8C882.18,-212.85 1105.91,-296.42 1198.06,-330.85"/>
<polygon fill="#aab0b6" stroke="#aab0b6" points="1197.21,-332.77 1203.57,-332.9 1198.68,-328.84 1197.21,-332.77"/>
</g>
<!-- E1 -->
<g id="node18" class="node">
<title>E1</title>
<path fill="#eeeeee" stroke="#999999" d="M431.12,-418C431.12,-418 389.62,-418 389.62,-418 383.62,-418 377.62,-412 377.62,-406 377.62,-406 377.62,-394 377.62,-394 377.62,-388 383.62,-382 389.62,-382 389.62,-382 431.12,-382 431.12,-382 437.12,-382 443.12,-388 443.12,-394 443.12,-394 443.12,-406 443.12,-406 443.12,-412 437.12,-418 431.12,-418"/>
<text xml:space="preserve" text-anchor="middle" x="410.38" y="-403.25" font-family="Helvetica,sans-Serif" font-size="10.00">E1 Pose</text>
<text xml:space="preserve" text-anchor="middle" x="410.38" y="-390.5" font-family="Helvetica,sans-Serif" font-size="10.00">extraction</text>
</g>
<!-- E2 -->
<g id="node19" class="node">
<title>E2</title>
<path fill="#eeeeee" stroke="#999999" d="M629,-476C629,-476 547.75,-476 547.75,-476 541.75,-476 535.75,-470 535.75,-464 535.75,-464 535.75,-452 535.75,-452 535.75,-446 541.75,-440 547.75,-440 547.75,-440 629,-440 629,-440 635,-440 641,-446 641,-452 641,-452 641,-464 641,-464 641,-470 635,-476 629,-476"/>
<text xml:space="preserve" text-anchor="middle" x="588.38" y="-461.25" font-family="Helvetica,sans-Serif" font-size="10.00">E2 Representation</text>
<text xml:space="preserve" text-anchor="middle" x="588.38" y="-448.5" font-family="Helvetica,sans-Serif" font-size="10.00">+ primitives</text>
</g>
<!-- E1&#45;&gt;E2 -->
<g id="edge24" class="edge">
<title>E1&#45;&gt;E2</title>
<path fill="none" stroke="#aab0b6" d="M443.25,-410.5C466.9,-418.3 499.84,-429.15 528.25,-438.52"/>
<polygon fill="#aab0b6" stroke="#aab0b6" points="527.58,-440.51 533.93,-440.39 528.89,-436.52 527.58,-440.51"/>
</g>
<!-- E1&#45;&gt;E3 -->
<g id="edge25" class="edge">
<title>E1&#45;&gt;E3</title>
<path fill="none" stroke="#aab0b6" d="M443.25,-400C470.76,-400 510.83,-400 541.75,-400"/>
<polygon fill="#aab0b6" stroke="#aab0b6" points="541.48,-402.1 547.48,-400 541.48,-397.9 541.48,-402.1"/>
</g>
<!-- E1&#45;&gt;F1 -->
<g id="edge27" class="edge">
<title>E1&#45;&gt;F1</title>
<path fill="none" stroke="#aab0b6" d="M443.47,-416.62C450.3,-420.48 457.37,-424.71 463.75,-429 497.85,-451.93 497,-473.33 535.75,-487 595.33,-508.01 667.96,-487.6 714.12,-469.29"/>
<polygon fill="#aab0b6" stroke="#aab0b6" points="714.85,-471.26 719.62,-467.06 713.27,-467.37 714.85,-471.26"/>
</g>
<!-- G1 -->
<g id="node26" class="node">
<title>G1</title>
<path fill="#eeeeee" stroke="#999999" d="M1106.75,-480C1106.75,-480 1056.25,-480 1056.25,-480 1050.25,-480 1044.25,-474 1044.25,-468 1044.25,-468 1044.25,-456 1044.25,-456 1044.25,-450 1050.25,-444 1056.25,-444 1056.25,-444 1106.75,-444 1106.75,-444 1112.75,-444 1118.75,-450 1118.75,-456 1118.75,-456 1118.75,-468 1118.75,-468 1118.75,-474 1112.75,-480 1106.75,-480"/>
<text xml:space="preserve" text-anchor="middle" x="1081.5" y="-465.25" font-family="Helvetica,sans-Serif" font-size="10.00">G1 Player +</text>
<text xml:space="preserve" text-anchor="middle" x="1081.5" y="-452.5" font-family="Helvetica,sans-Serif" font-size="10.00">overlay</text>
</g>
<!-- E1&#45;&gt;G1 -->
<g id="edge26" class="edge">
<title>E1&#45;&gt;G1</title>
<path fill="none" stroke="#aab0b6" d="M443.45,-415.59C450.42,-419.56 457.55,-424.1 463.75,-429 501.02,-458.45 492.29,-488.81 535.75,-508 581.66,-528.27 733.97,-549.92 980.25,-501 999.49,-497.18 1019.83,-489.92 1037.11,-482.7"/>
<polygon fill="#aab0b6" stroke="#aab0b6" points="1037.74,-484.72 1042.43,-480.43 1036.09,-480.85 1037.74,-484.72"/>
</g>
<!-- E2&#45;&gt;D6 -->
<g id="edge28" class="edge">
<title>E2&#45;&gt;D6</title>
<path fill="none" stroke="#aab0b6" d="M635.96,-439.61C640.72,-436.53 645.19,-433 649,-429 715.18,-359.41 745.01,-244.41 755.48,-193.55"/>
<polygon fill="#aab0b6" stroke="#aab0b6" points="757.52,-194.02 756.64,-187.72 753.4,-193.19 757.52,-194.02"/>
</g>
<!-- E2&#45;&gt;F1 -->
<g id="edge29" class="edge">
<title>E2&#45;&gt;F1</title>
<path fill="none" stroke="#aab0b6" d="M641.07,-454.97C662.32,-453.73 686.88,-452.29 708.16,-451.04"/>
<polygon fill="#aab0b6" stroke="#aab0b6" points="708.16,-453.15 714.03,-450.7 707.91,-448.95 708.16,-453.15"/>
</g>
<!-- E4&#45;&gt;F1 -->
<g id="edge32" class="edge">
<title>E4&#45;&gt;F1</title>
<path fill="none" stroke="#aab0b6" d="M435.49,-476.3C459.45,-493.23 497.98,-517.22 535.75,-527 584.48,-539.61 601.05,-542.31 649,-527 683.15,-516.1 715.79,-490.44 736.76,-471.31"/>
<polygon fill="#aab0b6" stroke="#aab0b6" points="738.02,-473 740.98,-467.38 735.15,-469.93 738.02,-473"/>
</g>
<!-- F1&#45;&gt;F2 -->
<g id="edge33" class="edge">
<title>F1&#45;&gt;F2</title>
<path fill="none" stroke="#aab0b6" d="M806.4,-432.3C827.24,-424.92 852.23,-416.06 873.94,-408.36"/>
<polygon fill="#aab0b6" stroke="#aab0b6" points="874.49,-410.4 879.44,-406.42 873.08,-406.44 874.49,-410.4"/>
</g>
<!-- F3 -->
<g id="node24" class="node">
<title>F3</title>
<path fill="#eeeeee" stroke="#999999" d="M950.12,-466C950.12,-466 903.38,-466 903.38,-466 897.38,-466 891.38,-460 891.38,-454 891.38,-454 891.38,-442 891.38,-442 891.38,-436 897.38,-430 903.38,-430 903.38,-430 950.12,-430 950.12,-430 956.12,-430 962.12,-436 962.12,-442 962.12,-442 962.12,-454 962.12,-454 962.12,-460 956.12,-466 950.12,-466"/>
<text xml:space="preserve" text-anchor="middle" x="926.75" y="-451.25" font-family="Helvetica,sans-Serif" font-size="10.00">F3 Deep</text>
<text xml:space="preserve" text-anchor="middle" x="926.75" y="-438.5" font-family="Helvetica,sans-Serif" font-size="10.00">embedding</text>
</g>
<!-- F1&#45;&gt;F3 -->
<g id="edge34" class="edge">
<title>F1&#45;&gt;F3</title>
<path fill="none" stroke="#aab0b6" d="M806.4,-448C830.4,-448 859.9,-448 883.57,-448"/>
<polygon fill="#aab0b6" stroke="#aab0b6" points="883.52,-450.1 889.52,-448 883.52,-445.9 883.52,-450.1"/>
</g>
<!-- F2&#45;&gt;G2 -->
<g id="edge35" class="edge">
<title>F2&#45;&gt;G2</title>
<path fill="none" stroke="#aab0b6" d="M972.62,-383.65C1033.09,-375.09 1139.84,-359.98 1198.03,-351.75"/>
<polygon fill="#aab0b6" stroke="#aab0b6" points="1198.08,-353.86 1203.73,-350.94 1197.49,-349.7 1198.08,-353.86"/>
</g>
<!-- G3 -->
<g id="node28" class="node">
<title>G3</title>
<path fill="#eeeeee" stroke="#999999" d="M1276.5,-422C1276.5,-422 1202.75,-422 1202.75,-422 1196.75,-422 1190.75,-416 1190.75,-410 1190.75,-410 1190.75,-398 1190.75,-398 1190.75,-392 1196.75,-386 1202.75,-386 1202.75,-386 1276.5,-386 1276.5,-386 1282.5,-386 1288.5,-392 1288.5,-398 1288.5,-398 1288.5,-410 1288.5,-410 1288.5,-416 1282.5,-422 1276.5,-422"/>
<text xml:space="preserve" text-anchor="middle" x="1239.62" y="-407.25" font-family="Helvetica,sans-Serif" font-size="10.00">G3 Lookup demo</text>
<text xml:space="preserve" text-anchor="middle" x="1239.62" y="-394.5" font-family="Helvetica,sans-Serif" font-size="10.00">(flagship)</text>
</g>
<!-- F2&#45;&gt;G3 -->
<g id="edge36" class="edge">
<title>F2&#45;&gt;G3</title>
<path fill="none" stroke="#aab0b6" d="M972.55,-389.75C1011.28,-389.76 1068.74,-390.32 1118.75,-393 1139.75,-394.13 1162.77,-396.07 1182.97,-398.01"/>
<polygon fill="#aab0b6" stroke="#aab0b6" points="1182.59,-400.08 1188.77,-398.57 1183,-395.9 1182.59,-400.08"/>
</g>
<!-- F2&#45;&gt;G4 -->
<g id="edge37" class="edge">
<title>F2&#45;&gt;G4</title>
<path fill="none" stroke="#aab0b6" d="M965.42,-408.34C970.63,-411.57 975.74,-415.14 980.25,-419 1011.07,-445.34 1006.45,-463.52 1036.25,-491 1038.53,-493.1 1040.98,-495.15 1043.51,-497.13"/>
<polygon fill="#aab0b6" stroke="#aab0b6" points="1042.24,-498.81 1048.31,-500.7 1044.75,-495.44 1042.24,-498.81"/>
</g>
<!-- G5 -->
<g id="node30" class="node">
<title>G5</title>
<path fill="#eeeeee" stroke="#999999" d="M1261.88,-480C1261.88,-480 1217.38,-480 1217.38,-480 1211.38,-480 1205.38,-474 1205.38,-468 1205.38,-468 1205.38,-456 1205.38,-456 1205.38,-450 1211.38,-444 1217.38,-444 1217.38,-444 1261.88,-444 1261.88,-444 1267.88,-444 1273.88,-450 1273.88,-456 1273.88,-456 1273.88,-468 1273.88,-468 1273.88,-474 1267.88,-480 1261.88,-480"/>
<text xml:space="preserve" text-anchor="middle" x="1239.62" y="-465.25" font-family="Helvetica,sans-Serif" font-size="10.00">G5 Search:</text>
<text xml:space="preserve" text-anchor="middle" x="1239.62" y="-452.5" font-family="Helvetica,sans-Serif" font-size="10.00">qualitative</text>
</g>
<!-- F3&#45;&gt;G5 -->
<g id="edge43" class="edge">
<title>F3&#45;&gt;G5</title>
<path fill="none" stroke="#aab0b6" d="M962.32,-441.99C983.57,-438.6 1011.4,-434.71 1036.25,-433 1072.83,-430.48 1082.34,-428.66 1118.75,-433 1145.42,-436.18 1174.73,-443.21 1197.69,-449.54"/>
<polygon fill="#aab0b6" stroke="#aab0b6" points="1197.11,-451.56 1203.46,-451.16 1198.25,-447.52 1197.11,-451.56"/>
</g>
<!-- G1&#45;&gt;G2 -->
<g id="edge39" class="edge">
<title>G1&#45;&gt;G2</title>
<path fill="none" stroke="#aab0b6" d="M1103.42,-443.81C1124.76,-425.58 1159.15,-397.13 1190.75,-375 1193.93,-372.77 1197.29,-370.53 1200.69,-368.34"/>
<polygon fill="#aab0b6" stroke="#aab0b6" points="1201.6,-370.24 1205.55,-365.26 1199.36,-366.7 1201.6,-370.24"/>
</g>
<!-- G1&#45;&gt;G3 -->
<g id="edge40" class="edge">
<title>G1&#45;&gt;G3</title>
<path fill="none" stroke="#aab0b6" d="M1119.1,-448.4C1138.3,-441.27 1162.2,-432.39 1183.58,-424.45"/>
<polygon fill="#aab0b6" stroke="#aab0b6" points="1184.11,-426.49 1189,-422.44 1182.64,-422.56 1184.11,-426.49"/>
</g>
<!-- G3&#45;&gt;G7 -->
<g id="edge47" class="edge">
<title>G3&#45;&gt;G7</title>
<path fill="none" stroke="#aab0b6" d="M1288.83,-395.53C1308.93,-392 1332.33,-387.89 1352.89,-384.28"/>
<polygon fill="#aab0b6" stroke="#aab0b6" points="1353,-386.4 1358.55,-383.29 1352.27,-382.26 1353,-386.4"/>
</g>
<!-- G4&#45;&gt;G5 -->
<g id="edge44" class="edge">
<title>G4&#45;&gt;G5</title>
<path fill="none" stroke="#aab0b6" d="M1115.99,-507.56C1139.99,-498.64 1172.44,-486.59 1197.93,-477.12"/>
<polygon fill="#aab0b6" stroke="#aab0b6" points="1198.61,-479.11 1203.5,-475.05 1197.14,-475.17 1198.61,-479.11"/>
</g>
<!-- G8 -->
<g id="node33" class="node">
<title>G8</title>
<path fill="#eeeeee" stroke="#999999" d="M1266,-538C1266,-538 1213.25,-538 1213.25,-538 1207.25,-538 1201.25,-532 1201.25,-526 1201.25,-526 1201.25,-514 1201.25,-514 1201.25,-508 1207.25,-502 1213.25,-502 1213.25,-502 1266,-502 1266,-502 1272,-502 1278,-508 1278,-514 1278,-514 1278,-526 1278,-526 1278,-532 1272,-538 1266,-538"/>
<text xml:space="preserve" text-anchor="middle" x="1239.62" y="-523.25" font-family="Helvetica,sans-Serif" font-size="10.00">G8 Compare</text>
<text xml:space="preserve" text-anchor="middle" x="1239.62" y="-510.5" font-family="Helvetica,sans-Serif" font-size="10.00">demo</text>
</g>
<!-- G4&#45;&gt;G8 -->
<g id="edge45" class="edge">
<title>G4&#45;&gt;G8</title>
<path fill="none" stroke="#aab0b6" d="M1115.99,-520C1138.57,-520 1168.62,-520 1193.32,-520"/>
<polygon fill="#aab0b6" stroke="#aab0b6" points="1193.29,-522.1 1199.29,-520 1193.29,-517.9 1193.29,-522.1"/>
</g>
<!-- G5&#45;&gt;G6 -->
<g id="edge46" class="edge">
<title>G5&#45;&gt;G6</title>
<path fill="none" stroke="#aab0b6" d="M1274.04,-458.96C1300.08,-456.6 1336.37,-453.3 1364.27,-450.77"/>
<polygon fill="#aab0b6" stroke="#aab0b6" points="1364.24,-452.88 1370.03,-450.25 1363.86,-448.7 1364.24,-452.88"/>
</g>
</g>
</svg>
<svg x="572.5" y="828.0" width="332.0" height="44.0"
 viewBox="0.00 0.00 332.00 44.00" xmlns="http://www.w3.org/2000/svg" xmlns:xlink="http://www.w3.org/1999/xlink">
<g id="graph0" class="graph" transform="scale(1 1) rotate(0) translate(4 40)">
<title>L</title>
<polygon fill="white" stroke="none" points="-4,4 -4,-40 328,-40 328,4 -4,4"/>
<!-- d -->
<g id="node1" class="node">
<title>d</title>
<path fill="#cfe8cf" stroke="#2e7d32" d="M42,-36C42,-36 12,-36 12,-36 6,-36 0,-30 0,-24 0,-24 0,-12 0,-12 0,-6 6,0 12,0 12,0 42,0 42,0 48,0 54,-6 54,-12 54,-12 54,-24 54,-24 54,-30 48,-36 42,-36"/>
<text xml:space="preserve" text-anchor="middle" x="27" y="-13.72" font-family="Helvetica,sans-Serif" font-size="12.00">done</text>
</g>
<!-- a -->
<g id="node2" class="node">
<title>a</title>
<path fill="#fff3c4" stroke="#b8860b" d="M132,-36C132,-36 102,-36 102,-36 96,-36 90,-30 90,-24 90,-24 90,-12 90,-12 90,-6 96,0 102,0 102,0 132,0 132,0 138,0 144,-6 144,-12 144,-12 144,-24 144,-24 144,-30 138,-36 132,-36"/>
<text xml:space="preserve" text-anchor="middle" x="117" y="-13.72" font-family="Helvetica,sans-Serif" font-size="12.00">active</text>
</g>
<!-- d&#45;&gt;a -->
<!-- n -->
<g id="node3" class="node">
<title>n</title>
<path fill="#cfe0f5" stroke="#1565c0" d="M222,-36C222,-36 192,-36 192,-36 186,-36 180,-30 180,-24 180,-24 180,-12 180,-12 180,-6 186,0 192,0 192,0 222,0 222,0 228,0 234,-6 234,-12 234,-12 234,-24 234,-24 234,-30 228,-36 222,-36"/>
<text xml:space="preserve" text-anchor="middle" x="207" y="-13.72" font-family="Helvetica,sans-Serif" font-size="12.00">next</text>
</g>
<!-- a&#45;&gt;n -->
<!-- f -->
<g id="node4" class="node">
<title>f</title>
<path fill="#eeeeee" stroke="#999999" d="M312,-36C312,-36 282,-36 282,-36 276,-36 270,-30 270,-24 270,-24 270,-12 270,-12 270,-6 276,0 282,0 282,0 312,0 312,0 318,0 324,-6 324,-12 324,-12 324,-24 324,-24 324,-30 318,-36 312,-36"/>
<text xml:space="preserve" text-anchor="middle" x="297" y="-13.72" font-family="Helvetica,sans-Serif" font-size="12.00">future</text>
</g>
<!-- n&#45;&gt;f -->
</g>
</svg>
</svg>
