<?xml version="1.0" encoding="UTF-8"?>
<svg xmlns="http://www.w3.org/2000/svg" xmlns:xlink="http://www.w3.org/1999/xlink" width="1477pt" height="862pt" viewBox="0 0 1477 862">
<rect width="100%" height="100%" fill="white"/>
<svg x="0.0" y="0.0" width="1477.0" height="794.0"
 viewBox="0.00 0.00 1477.00 794.00" xmlns="http://www.w3.org/2000/svg" xmlns:xlink="http://www.w3.org/1999/xlink">
<g id="graph0" class="graph" transform="scale(1 1) rotate(0) translate(4 789.5)">
<title>roadmap</title>
<polygon fill="white" stroke="none" points="-4,4 -4,-789.5 1473,-789.5 1473,4 -4,4"/>
<text xml:space="preserve" text-anchor="start" x="520" y="-757.8" font-family="Helvetica,sans-Serif" font-weight="bold" font-size="26.00">ATR</text>
<text xml:space="preserve" text-anchor="start" x="576.25" y="-757.8" font-family="Helvetica,sans-Serif" font-size="14.00"> &#160;</text>
<text xml:space="preserve" text-anchor="start" x="585.25" y="-757.8" font-family="Helvetica,sans-Serif" font-size="12.00" fill="#666666">Aikido Technique Recognition · roadmap (dependency graph)</text>
<g id="clust1" class="cluster">
<title>cluster_A</title>
<path fill="none" stroke="#b0b0b0" stroke-width="1.3" d="M20,-166C20,-166 104.5,-166 104.5,-166 110.5,-166 116.5,-172 116.5,-178 116.5,-178 116.5,-344 116.5,-344 116.5,-350 110.5,-356 104.5,-356 104.5,-356 20,-356 20,-356 14,-356 8,-350 8,-344 8,-344 8,-178 8,-178 8,-172 14,-166 20,-166"/>
<text xml:space="preserve" text-anchor="middle" x="56.88" y="-341.55" font-family="Helvetica,sans-Serif" font-size="11.00" fill="#666666">A &#160;Foundations</text>
</g>
<g id="clust2" class="cluster">
<title>cluster_B</title>
<path fill="none" stroke="#b0b0b0" stroke-width="1.3" d="M191.25,-664C191.25,-664 619,-664 619,-664 625,-664 631,-670 631,-676 631,-676 631,-726 631,-726 631,-732 625,-738 619,-738 619,-738 191.25,-738 191.25,-738 185.25,-738 179.25,-732 179.25,-726 179.25,-726 179.25,-676 179.25,-676 179.25,-670 185.25,-664 191.25,-664"/>
<text xml:space="preserve" text-anchor="middle" x="242.38" y="-723.55" font-family="Helvetica,sans-Serif" font-size="11.00" fill="#666666">B &#160;Knowledge graph</text>
</g>
<g id="clust3" class="cluster">
<title>cluster_C</title>
<path fill="none" stroke="#b0b0b0" stroke-width="1.3" d="M184.5,-224C184.5,-224 629.88,-224 629.88,-224 635.88,-224 641.88,-230 641.88,-236 641.88,-236 641.88,-344 641.88,-344 641.88,-350 635.88,-356 629.88,-356 629.88,-356 184.5,-356 184.5,-356 178.5,-356 172.5,-350 172.5,-344 172.5,-344 172.5,-236 172.5,-236 172.5,-230 178.5,-224 184.5,-224"/>
<text xml:space="preserve" text-anchor="middle" x="245.38" y="-341.55" font-family="Helvetica,sans-Serif" font-size="11.00" fill="#666666">C &#160;Taxonomy + sources</text>
</g>
<g id="clust4" class="cluster">
<title>cluster_D</title>
<path fill="none" stroke="#b0b0b0" stroke-width="1.3" d="M374.88,-26C374.88,-26 967.88,-26 967.88,-26 973.88,-26 979.88,-32 979.88,-38 979.88,-38 979.88,-204 979.88,-204 979.88,-210 973.88,-216 967.88,-216 967.88,-216 374.88,-216 374.88,-216 368.88,-216 362.88,-210 362.88,-204 362.88,-204 362.88,-38 362.88,-38 362.88,-32 368.88,-26 374.88,-26"/>
<text xml:space="preserve" text-anchor="middle" x="453" y="-201.55" font-family="Helvetica,sans-Serif" font-size="11.00" fill="#666666">D &#160;Movement language (AML)</text>
</g>
<g id="clust5" class="cluster">
<title>cluster_E</title>
<path fill="none" stroke="#b0b0b0" stroke-width="1.3" d="M361,-364C361,-364 637,-364 637,-364 643,-364 649,-370 649,-376 649,-376 649,-484 649,-484 649,-490 643,-496 637,-496 637,-496 361,-496 361,-496 355,-496 349,-490 349,-484 349,-484 349,-376 349,-376 349,-370 355,-364 361,-364"/>
<text xml:space="preserve" text-anchor="middle" x="393" y="-481.55" font-family="Helvetica,sans-Serif" font-size="11.00" fill="#666666">E &#160;Perception</text>
</g>
<g id="clust6" class="cluster">
<title>cluster_F</title>
<path fill="none" stroke="#b0b0b0" stroke-width="1.3" d="M720,-359C720,-359 968.25,-359 968.25,-359 974.25,-359 980.25,-365 980.25,-371 980.25,-371 980.25,-479 980.25,-479 980.25,-485 974.25,-491 968.25,-491 968.25,-491 720,-491 720,-491 714,-491 708,-485 708,-479 708,-479 708,-371 708,-371 708,-365 714,-359 720,-359"/>
<text xml:space="preserve" text-anchor="middle" x="739.25" y="-476.55" font-family="Helvetica,sans-Serif" font-size="11.00" fill="#666666">F &#160;Model</text>
</g>
<g id="clust7" class="cluster">
<title>cluster_G</title>
<path fill="none" stroke="#b0b0b0" stroke-width="1.3" d="M1048.25,-315C1048.25,-315 1449,-315 1449,-315 1455,-315 1461,-321 1461,-327 1461,-327 1461,-551 1461,-551 1461,-557 1455,-563 1449,-563 1449,-563 1048.25,-563 1048.25,-563 1042.25,-563 1036.25,-557 1036.25,-551 1036.25,-551 1036.25,-327 1036.25,-327 1036.25,-321 1042.25,-315 1048.25,-315"/>
<text xml:space="preserve" text-anchor="middle" x="1073.12" y="-548.55" font-family="Helvetica,sans-Serif" font-size="11.00" fill="#666666">G &#160;Product</text>
</g>
<!-- A1 -->
<g id="node1" class="node">
<title>A1</title>
<path fill="#cfe8cf" stroke="#2e7d32" d="M96.5,-268C96.5,-268 28,-268 28,-268 22,-268 16,-262 16,-256 16,-256 16,-244 16,-244 16,-238 22,-232 28,-232 28,-232 96.5,-232 96.5,-232 102.5,-232 108.5,-238 108.5,-244 108.5,-244 108.5,-256 108.5,-256 108.5,-262 102.5,-268 96.5,-268"/>
<text xml:space="preserve" text-anchor="middle" x="62.25" y="-253.25" font-family="Helvetica,sans-Serif" font-size="10.00">A1 Conventions</text>
<text xml:space="preserve" text-anchor="middle" x="62.25" y="-240.5" font-family="Helvetica,sans-Serif" font-size="10.00">+ repo</text>
</g>
<!-- B1 -->
<g id="node4" class="node">
<title>B1</title>
<path fill="#cfe8cf" stroke="#2e7d32" d="M266.25,-708C266.25,-708 199.25,-708 199.25,-708 193.25,-708 187.25,-702 187.25,-696 187.25,-696 187.25,-684 187.25,-684 187.25,-678 193.25,-672 199.25,-672 199.25,-672 266.25,-672 266.25,-672 272.25,-672 278.25,-678 278.25,-684 278.25,-684 278.25,-696 278.25,-696 278.25,-702 272.25,-708 266.25,-708"/>
<text xml:space="preserve" text-anchor="middle" x="232.75" y="-693.25" font-family="Helvetica,sans-Serif" font-size="10.00">B1 Lineage +</text>
<text xml:space="preserve" text-anchor="middle" x="232.75" y="-680.5" font-family="Helvetica,sans-Serif" font-size="10.00">federation map</text>
</g>
<!-- A1&#45;&gt;B1 -->
<g id="edge1" class="edge">
<title>A1&#45;&gt;B1</title>
<path fill="none" stroke="#aab0b6" d="M105.35,-268.5C109.51,-271.56 113.35,-275.05 116.5,-279 141.35,-310.19 205.89,-579.51 225.81,-664.45"/>
<polygon fill="#aab0b6" stroke="#aab0b6" points="223.73,-664.79 227.14,-670.15 227.82,-663.83 223.73,-664.79"/>
</g>
<!-- C1 -->
<g id="node7" class="node">
<title>C1</title>
<path fill="#cfe8cf" stroke="#2e7d32" d="M273,-268C273,-268 192.5,-268 192.5,-268 186.5,-268 180.5,-262 180.5,-256 180.5,-256 180.5,-244 180.5,-244 180.5,-238 186.5,-232 192.5,-232 192.5,-232 273,-232 273,-232 279,-232 285,-238 285,-244 285,-244 285,-256 285,-256 285,-262 279,-268 273,-268"/>
<text xml:space="preserve" text-anchor="middle" x="232.75" y="-253.25" font-family="Helvetica,sans-Serif" font-size="10.00">C1 Book ingestion</text>
<text xml:space="preserve" text-anchor="middle" x="232.75" y="-240.5" font-family="Helvetica,sans-Serif" font-size="10.00">pipeline</text>
</g>
<!-- A1&#45;&gt;C1 -->
<g id="edge2" class="edge">
<title>A1&#45;&gt;C1</title>
<path fill="none" stroke="#aab0b6" d="M108.85,-250C128.55,-250 151.86,-250 172.85,-250"/>
<polygon fill="#aab0b6" stroke="#aab0b6" points="172.65,-252.1 178.65,-250 172.65,-247.9 172.65,-252.1"/>
</g>
<!-- D1 -->
<g id="node12" class="node">
<title>D1</title>
<path fill="#cfe8cf" stroke="#2e7d32" d="M437.88,-154C437.88,-154 382.88,-154 382.88,-154 376.88,-154 370.88,-148 370.88,-142 370.88,-142 370.88,-130 370.88,-130 370.88,-124 376.88,-118 382.88,-118 382.88,-118 437.88,-118 437.88,-118 443.88,-118 449.88,-124 449.88,-130 449.88,-130 449.88,-142 449.88,-142 449.88,-148 443.88,-154 437.88,-154"/>
<text xml:space="preserve" text-anchor="middle" x="410.38" y="-132.88" font-family="Helvetica,sans-Serif" font-size="10.00">D1 AML spec</text>
</g>
<!-- A1&#45;&gt;D1 -->
<g id="edge3" class="edge">
<title>A1&#45;&gt;D1</title>
<path fill="none" stroke="#aab0b6" d="M108.86,-234.98C175.1,-213.16 297.24,-172.93 363.59,-151.08"/>
<polygon fill="#aab0b6" stroke="#aab0b6" points="364.13,-153.11 369.17,-149.24 362.82,-149.12 364.13,-153.11"/>
</g>
<!-- A2 -->
<g id="node2" class="node">
<title>A2</title>
<path fill="#fff3c4" stroke="#b8860b" d="M95.38,-210C95.38,-210 29.12,-210 29.12,-210 23.12,-210 17.12,-204 17.12,-198 17.12,-198 17.12,-186 17.12,-186 17.12,-180 23.12,-174 29.12,-174 29.12,-174 95.38,-174 95.38,-174 101.38,-174 107.38,-180 107.38,-186 107.38,-186 107.38,-198 107.38,-198 107.38,-204 101.38,-210 95.38,-210"/>
<text xml:space="preserve" text-anchor="middle" x="62.25" y="-195.25" font-family="Helvetica,sans-Serif" font-size="10.00">A2 Governance</text>
<text xml:space="preserve" text-anchor="middle" x="62.25" y="-182.5" font-family="Helvetica,sans-Serif" font-size="10.00">+ consent</text>
</g>
<!-- E4 -->
<g id="node21" class="node">
<title>E4</title>
<path fill="#eeeeee" stroke="#999999" d="M451.75,-466C451.75,-466 369,-466 369,-466 363,-466 357,-460 357,-454 357,-454 357,-442 357,-442 357,-436 363,-430 369,-430 369,-430 451.75,-430 451.75,-430 457.75,-430 463.75,-436 463.75,-442 463.75,-442 463.75,-454 463.75,-454 463.75,-460 457.75,-466 451.75,-466"/>
<text xml:space="preserve" text-anchor="middle" x="410.38" y="-451.25" font-family="Helvetica,sans-Serif" font-size="10.00">E4 Video ingestion</text>
<text xml:space="preserve" text-anchor="middle" x="410.38" y="-438.5" font-family="Helvetica,sans-Serif" font-size="10.00">+ agreements</text>
</g>
<!-- A2&#45;&gt;E4 -->
<g id="edge4" class="edge">
<title>A2&#45;&gt;E4</title>
<path fill="none" stroke="#aab0b6" d="M104.41,-210.47C108.84,-213.56 113,-217.06 116.5,-221 161.01,-271.1 124.44,-314.29 172.5,-361 220.81,-407.95 296.55,-429.89 349.33,-439.92"/>
<polygon fill="#aab0b6" stroke="#aab0b6" points="348.85,-441.97 355.13,-440.99 349.61,-437.84 348.85,-441.97"/>
</g>
<!-- G7 -->
<g id="node32" class="node">
<title>G7</title>
<path fill="#eeeeee" stroke="#999999" d="M1441,-388C1441,-388 1372.5,-388 1372.5,-388 1366.5,-388 1360.5,-382 1360.5,-376 1360.5,-376 1360.5,-364 1360.5,-364 1360.5,-358 1366.5,-352 1372.5,-352 1372.5,-352 1441,-352 1441,-352 1447,-352 1453,-358 1453,-364 1453,-364 1453,-376 1453,-376 1453,-382 1447,-388 1441,-388"/>
<text xml:space="preserve" text-anchor="middle" x="1406.75" y="-373.25" font-family="Helvetica,sans-Serif" font-size="10.00">G7 Contribution</text>
<text xml:space="preserve" text-anchor="middle" x="1406.75" y="-360.5" font-family="Helvetica,sans-Serif" font-size="10.00">loop</text>
</g>
<!-- A2&#45;&gt;G7 -->
<g id="edge5" class="edge">
<title>A2&#45;&gt;G7</title>
<path fill="none" stroke="#aab0b6" d="M80.8,-173.59C128.62,-125.53 267.13,0 409.38,0 409.38,0 409.38,0 1082.5,0 1265.9,0 1369.25,-261 1397.65,-344.58"/>
<polygon fill="#aab0b6" stroke="#aab0b6" points="1395.64,-345.19 1399.53,-350.22 1399.62,-343.86 1395.64,-345.19"/>
</g>
<!-- A3 -->
<g id="node3" class="node">
<title>A3</title>
<path fill="#fff3c4" stroke="#b8860b" d="M85.62,-326C85.62,-326 38.88,-326 38.88,-326 32.88,-326 26.88,-320 26.88,-314 26.88,-314 26.88,-302 26.88,-302 26.88,-296 32.88,-290 38.88,-290 38.88,-290 85.62,-290 85.62,-290 91.62,-290 97.62,-296 97.62,-302 97.62,-302 97.62,-314 97.62,-314 97.62,-320 91.62,-326 85.62,-326"/>
<text xml:space="preserve" text-anchor="middle" x="62.25" y="-311.25" font-family="Helvetica,sans-Serif" font-size="10.00">A3 Teacher</text>
<text xml:space="preserve" text-anchor="middle" x="62.25" y="-298.5" font-family="Helvetica,sans-Serif" font-size="10.00">onboarding</text>
</g>
<!-- B2 -->
<g id="node5" class="node">
<title>B2</title>
<path fill="#fff3c4" stroke="#b8860b" d="M437.88,-708C437.88,-708 382.88,-708 382.88,-708 376.88,-708 370.88,-702 370.88,-696 370.88,-696 370.88,-684 370.88,-684 370.88,-678 376.88,-672 382.88,-672 382.88,-672 437.88,-672 437.88,-672 443.88,-672 449.88,-678 449.88,-684 449.88,-684 449.88,-696 449.88,-696 449.88,-702 443.88,-708 437.88,-708"/>
<text xml:space="preserve" text-anchor="middle" x="410.38" y="-693.25" font-family="Helvetica,sans-Serif" font-size="10.00">B2 Reconcile</text>
<text xml:space="preserve" text-anchor="middle" x="410.38" y="-680.5" font-family="Helvetica,sans-Serif" font-size="10.00">duplicates</text>
</g>
<!-- B1&#45;&gt;B2 -->
<g id="edge6" class="edge">
<title>B1&#45;&gt;B2</title>
<path fill="none" stroke="#aab0b6" d="M278.52,-690C304.53,-690 337.24,-690 363.44,-690"/>
<polygon fill="#aab0b6" stroke="#aab0b6" points="363.14,-692.1 369.14,-690 363.14,-687.9 363.14,-692.1"/>
</g>
<!-- B1&#45;&gt;E4 -->
<g id="edge30" class="edge">
<title>B1&#45;&gt;E4</title>
<path fill="none" stroke="#aab0b6" d="M246.95,-671.81C278.16,-628.8 356.52,-520.82 391.75,-472.29"/>
<polygon fill="#aab0b6" stroke="#aab0b6" points="393.31,-473.71 395.13,-467.63 389.91,-471.25 393.31,-473.71"/>
</g>
<!-- G4 -->
<g id="node29" class="node">
<title>G4</title>
<path fill="#eeeeee" stroke="#999999" d="M1103.75,-533C1103.75,-533 1059.25,-533 1059.25,-533 1053.25,-533 1047.25,-527 1047.25,-521 1047.25,-521 1047.25,-509 1047.25,-509 1047.25,-503 1053.25,-497 1059.25,-497 1059.25,-497 1103.75,-497 1103.75,-497 1109.75,-497 1115.75,-503 1115.75,-509 1115.75,-509 1115.75,-521 1115.75,-521 1115.75,-527 1109.75,-533 1103.75,-533"/>
<text xml:space="preserve" text-anchor="middle" x="1081.5" y="-518.25" font-family="Helvetica,sans-Serif" font-size="10.00">G4 Search:</text>
<text xml:space="preserve" text-anchor="middle" x="1081.5" y="-505.5" font-family="Helvetica,sans-Serif" font-size="10.00">structured</text>
</g>
<!-- B1&#45;&gt;G4 -->
<g id="edge31" class="edge">
<title>B1&#45;&gt;G4</title>
<path fill="none" stroke="#aab0b6" d="M278.57,-677.05C299.77,-671.36 325.52,-665.06 349,-661 453.88,-642.85 480.94,-638 587.38,-638 587.38,-638 587.38,-638 762.12,-638 872.53,-638 990.87,-572.85 1047.12,-537.38"/>
<polygon fill="#aab0b6" stroke="#aab0b6" points="1048.13,-539.22 1052.06,-534.23 1045.87,-535.68 1048.13,-539.22"/>
</g>
<!-- B3 -->
<g id="node6" class="node">
<title>B3</title>
<path fill="#eeeeee" stroke="#999999" d="M611,-708C611,-708 565.75,-708 565.75,-708 559.75,-708 553.75,-702 553.75,-696 553.75,-696 553.75,-684 553.75,-684 553.75,-678 559.75,-672 565.75,-672 565.75,-672 611,-672 611,-672 617,-672 623,-678 623,-684 623,-684 623,-696 623,-696 623,-702 617,-708 611,-708"/>
<text xml:space="preserve" text-anchor="middle" x="588.38" y="-693.25" font-family="Helvetica,sans-Serif" font-size="10.00">B3 Deepen</text>
<text xml:space="preserve" text-anchor="middle" x="588.38" y="-680.5" font-family="Helvetica,sans-Serif" font-size="10.00">lineage</text>
</g>
<!-- B2&#45;&gt;B3 -->
<g id="edge7" class="edge">
<title>B2&#45;&gt;B3</title>
<path fill="none" stroke="#aab0b6" d="M450,-690C478.45,-690 517.08,-690 546.13,-690"/>
<polygon fill="#aab0b6" stroke="#aab0b6" points="545.79,-692.1 551.79,-690 545.79,-687.9 545.79,-692.1"/>
</g>
<!-- C2 -->
<g id="node8" class="node">
<title>C2</title>
<path fill="#cfe8cf" stroke="#2e7d32" d="M444.25,-297C444.25,-297 376.5,-297 376.5,-297 370.5,-297 364.5,-291 364.5,-285 364.5,-285 364.5,-273 364.5,-273 364.5,-267 370.5,-261 376.5,-261 376.5,-261 444.25,-261 444.25,-261 450.25,-261 456.25,-267 456.25,-273 456.25,-273 456.25,-285 456.25,-285 456.25,-291 450.25,-297 444.25,-297"/>
<text xml:space="preserve" text-anchor="middle" x="410.38" y="-282.25" font-family="Helvetica,sans-Serif" font-size="10.00">C2 Saito corpus</text>
<text xml:space="preserve" text-anchor="middle" x="410.38" y="-269.5" font-family="Helvetica,sans-Serif" font-size="10.00">ingested</text>
</g>
<!-- C1&#45;&gt;C2 -->
<g id="edge8" class="edge">
<title>C1&#45;&gt;C2</title>
<path fill="none" stroke="#aab0b6" d="M285.49,-258.54C308.04,-262.27 334.44,-266.63 357.05,-270.36"/>
<polygon fill="#aab0b6" stroke="#aab0b6" points="356.5,-272.4 362.76,-271.3 357.18,-268.25 356.5,-272.4"/>
</g>
<!-- C3 -->
<g id="node9" class="node">
<title>C3</title>
<path fill="#cfe8cf" stroke="#2e7d32" d="M621.88,-268C621.88,-268 554.88,-268 554.88,-268 548.88,-268 542.88,-262 542.88,-256 542.88,-256 542.88,-244 542.88,-244 542.88,-238 548.88,-232 554.88,-232 554.88,-232 621.88,-232 621.88,-232 627.88,-232 633.88,-238 633.88,-244 633.88,-244 633.88,-256 633.88,-256 633.88,-262 627.88,-268 621.88,-268"/>
<text xml:space="preserve" text-anchor="middle" x="588.38" y="-253.25" font-family="Helvetica,sans-Serif" font-size="10.00">C3 Observation</text>
<text xml:space="preserve" text-anchor="middle" x="588.38" y="-240.5" font-family="Helvetica,sans-Serif" font-size="10.00">provenance</text>
</g>
<!-- C2&#45;&gt;C3 -->
<g id="edge9" class="edge">
<title>C2&#45;&gt;C3</title>
<path fill="none" stroke="#aab0b6" d="M456.7,-271.53C480.71,-267.58 510.31,-262.7 535.26,-258.59"/>
<polygon fill="#aab0b6" stroke="#aab0b6" points="535.44,-260.69 541.02,-257.64 534.75,-256.54 535.44,-260.69"/>
</g>
<!-- C4 -->
<g id="node10" class="node">
<title>C4</title>
<path fill="#cfe0f5" stroke="#1565c0" d="M611,-326C611,-326 565.75,-326 565.75,-326 559.75,-326 553.75,-320 553.75,-314 553.75,-314 553.75,-302 553.75,-302 553.75,-296 559.75,-290 565.75,-290 565.75,-290 611,-290 611,-290 617,-290 623,-296 623,-302 623,-302 623,-314 623,-314 623,-320 617,-326 611,-326"/>
<text xml:space="preserve" text-anchor="middle" x="588.38" y="-311.25" font-family="Helvetica,sans-Serif" font-size="10.00">C4 Teacher</text>
<text xml:space="preserve" text-anchor="middle" x="588.38" y="-298.5" font-family="Helvetica,sans-Serif" font-size="10.00">ratification</text>
</g>
<!-- C2&#45;&gt;C4 -->
<g id="edge10" class="edge">
<title>C2&#45;&gt;C4</title>
<path fill="none" stroke="#aab0b6" d="M456.7,-286.47C484.26,-291.01 519.18,-296.76 545.99,-301.18"/>
<polygon fill="#aab0b6" stroke="#aab0b6" points="545.57,-303.24 551.83,-302.14 546.25,-299.1 545.57,-303.24"/>
</g>
<!-- D3 -->
<g id="node14" class="node">
<title>D3</title>
<path fill="#cfe0f5" stroke="#1565c0" d="M797.25,-128C797.25,-128 725,-128 725,-128 719,-128 713,-122 713,-116 713,-116 713,-104 713,-104 713,-98 719,-92 725,-92 725,-92 797.25,-92 797.25,-92 803.25,-92 809.25,-98 809.25,-104 809.25,-104 809.25,-116 809.25,-116 809.25,-122 803.25,-128 797.25,-128"/>
<text xml:space="preserve" text-anchor="middle" x="761.12" y="-113.25" font-family="Helvetica,sans-Serif" font-size="10.00">D3 Motif lexicon</text>
<text xml:space="preserve" text-anchor="middle" x="761.12" y="-100.5" font-family="Helvetica,sans-Serif" font-size="10.00">from books</text>
</g>
<!-- C2&#45;&gt;D3 -->
<g id="edge11" class="edge">
<title>C2&#45;&gt;D3</title>
<path fill="none" stroke="#aab0b6" d="M449.36,-260.59C514.35,-229.1 646.54,-165.04 715.69,-131.53"/>
<polygon fill="#aab0b6" stroke="#aab0b6" points="716.34,-133.55 720.82,-129.05 714.51,-129.77 716.34,-133.55"/>
</g>
<!-- E3 -->
<g id="node20" class="node">
<title>E3</title>
<path fill="#eeeeee" stroke="#999999" d="M615.5,-408C615.5,-408 561.25,-408 561.25,-408 555.25,-408 549.25,-402 549.25,-396 549.25,-396 549.25,-384 549.25,-384 549.25,-378 555.25,-372 561.25,-372 561.25,-372 615.5,-372 615.5,-372 621.5,-372 627.5,-378 627.5,-384 627.5,-384 627.5,-396 627.5,-396 627.5,-402 621.5,-408 615.5,-408"/>
<text xml:space="preserve" text-anchor="middle" x="588.38" y="-393.25" font-family="Helvetica,sans-Serif" font-size="10.00">E3 Keyframe</text>
<text xml:space="preserve" text-anchor="middle" x="588.38" y="-380.5" font-family="Helvetica,sans-Serif" font-size="10.00">ground truth</text>
</g>
<!-- C2&#45;&gt;E3 -->
<g id="edge12" class="edge">
<title>C2&#45;&gt;E3</title>
<path fill="none" stroke="#aab0b6" d="M438.19,-297.48C463.14,-314.48 501.52,-340.14 535.75,-361 539.55,-363.32 543.55,-365.68 547.56,-368.01"/>
<polygon fill="#aab0b6" stroke="#aab0b6" points="546.29,-369.7 552.54,-370.87 548.38,-366.06 546.29,-369.7"/>
</g>
<!-- C3&#45;&gt;G4 -->
<g id="edge41" class="edge">
<title>C3&#45;&gt;G4</title>
<path fill="none" stroke="#aab0b6" d="M634.11,-256.86C725.22,-271.61 928.08,-308.72 980.25,-354 1028.38,-395.77 995.39,-437.09 1036.25,-486 1038,-488.1 1039.94,-490.1 1042.01,-492"/>
<polygon fill="#aab0b6" stroke="#aab0b6" points="1040.61,-493.56 1046.55,-495.81 1043.31,-490.35 1040.61,-493.56"/>
</g>
<!-- G6 -->
<g id="node31" class="node">
<title>G6</title>
<path fill="#eeeeee" stroke="#999999" d="M1429.75,-460C1429.75,-460 1383.75,-460 1383.75,-460 1377.75,-460 1371.75,-454 1371.75,-448 1371.75,-448 1371.75,-436 1371.75,-436 1371.75,-430 1377.75,-424 1383.75,-424 1383.75,-424 1429.75,-424 1429.75,-424 1435.75,-424 1441.75,-430 1441.75,-436 1441.75,-436 1441.75,-448 1441.75,-448 1441.75,-454 1435.75,-460 1429.75,-460"/>
<text xml:space="preserve" text-anchor="middle" x="1406.75" y="-445.25" font-family="Helvetica,sans-Serif" font-size="10.00">G6 Teacher</text>
<text xml:space="preserve" text-anchor="middle" x="1406.75" y="-432.5" font-family="Helvetica,sans-Serif" font-size="10.00">over time</text>
</g>
<!-- C3&#45;&gt;G6 -->
<g id="edge42" class="edge">
<title>C3&#45;&gt;G6</title>
<path fill="none" stroke="#aab0b6" d="M634.25,-248.04C698.73,-245.39 821.33,-241 925.75,-241 925.75,-241 925.75,-241 1082.5,-241 1179.34,-241 1208.89,-256.87 1288.5,-312 1329.76,-340.57 1326.25,-362.31 1360.5,-399 1366.62,-405.56 1373.52,-412.38 1380.05,-418.59"/>
<polygon fill="#aab0b6" stroke="#aab0b6" points="1378.52,-420.03 1384.32,-422.62 1381.4,-416.98 1378.52,-420.03"/>
</g>
<!-- C4&#45;&gt;D3 -->
<g id="edge13" class="edge">
<title>C4&#45;&gt;D3</title>
<path fill="none" stroke="#aab0b6" d="M623.4,-296.57C632.6,-292.21 641.95,-286.44 649,-279 695.44,-229.99 662.92,-189.27 708,-139 709.98,-136.79 712.18,-134.71 714.51,-132.76"/>
<polygon fill="#aab0b6" stroke="#aab0b6" points="715.47,-134.67 718.96,-129.36 712.92,-131.33 715.47,-134.67"/>
</g>
<!-- F1 -->
<g id="node22" class="node">
<title>F1</title>
<path fill="#eeeeee" stroke="#999999" d="M794.25,-461C794.25,-461 728,-461 728,-461 722,-461 716,-455 716,-449 716,-449 716,-437 716,-437 716,-431 722,-425 728,-425 728,-425 794.25,-425 794.25,-425 800.25,-425 806.25,-431 806.25,-437 806.25,-437 806.25,-449 806.25,-449 806.25,-455 800.25,-461 794.25,-461"/>
<text xml:space="preserve" text-anchor="middle" x="761.12" y="-446.25" font-family="Helvetica,sans-Serif" font-size="10.00">F1 Labeled</text>
<text xml:space="preserve" text-anchor="middle" x="761.12" y="-433.5" font-family="Helvetica,sans-Serif" font-size="10.00">motion dataset</text>
</g>
<!-- C4&#45;&gt;F1 -->
<g id="edge14" class="edge">
<title>C4&#45;&gt;F1</title>
<path fill="none" stroke="#aab0b6" d="M611.37,-326.43C622.71,-336.03 636.71,-348.02 649,-359 675.74,-382.88 679.01,-392.91 708,-414 711.19,-416.32 714.59,-418.6 718.06,-420.79"/>
<polygon fill="#aab0b6" stroke="#aab0b6" points="716.85,-422.51 723.07,-423.84 719.04,-418.92 716.85,-422.51"/>
</g>
<!-- F2 -->
<g id="node23" class="node">
<title>F2</title>
<path fill="#eeeeee" stroke="#999999" d="M960.25,-403C960.25,-403 893.25,-403 893.25,-403 887.25,-403 881.25,-397 881.25,-391 881.25,-391 881.25,-379 881.25,-379 881.25,-373 887.25,-367 893.25,-367 893.25,-367 960.25,-367 960.25,-367 966.25,-367 972.25,-373 972.25,-379 972.25,-379 972.25,-391 972.25,-391 972.25,-397 966.25,-403 960.25,-403"/>
<text xml:space="preserve" text-anchor="middle" x="926.75" y="-388.25" font-family="Helvetica,sans-Serif" font-size="10.00">F2 Parse model</text>
<text xml:space="preserve" text-anchor="middle" x="926.75" y="-375.5" font-family="Helvetica,sans-Serif" font-size="10.00">(slots)</text>
</g>
<!-- C4&#45;&gt;F2 -->
<g id="edge15" class="edge">
<title>C4&#45;&gt;F2</title>
<path fill="none" stroke="#aab0b6" d="M623.34,-315.1C666.6,-324.21 743.62,-340.67 809.25,-356 830.4,-360.94 853.63,-366.66 873.75,-371.71"/>
<polygon fill="#aab0b6" stroke="#aab0b6" points="873.21,-373.74 879.54,-373.17 874.24,-369.67 873.21,-373.74"/>
</g>
<!-- F4 -->
<g id="node25" class="node">
<title>F4</title>
<path fill="#eeeeee" stroke="#999999" d="M790.5,-403C790.5,-403 731.75,-403 731.75,-403 725.75,-403 719.75,-397 719.75,-391 719.75,-391 719.75,-379 719.75,-379 719.75,-373 725.75,-367 731.75,-367 731.75,-367 790.5,-367 790.5,-367 796.5,-367 802.5,-373 802.5,-379 802.5,-379 802.5,-391 802.5,-391 802.5,-397 796.5,-403 790.5,-403"/>
<text xml:space="preserve" text-anchor="middle" x="761.12" y="-388.25" font-family="Helvetica,sans-Serif" font-size="10.00">F4 Evaluation</text>
<text xml:space="preserve" text-anchor="middle" x="761.12" y="-375.5" font-family="Helvetica,sans-Serif" font-size="10.00">set</text>
</g>
<!-- C4&#45;&gt;F4 -->
<g id="edge16" class="edge">
<title>C4&#45;&gt;F4</title>
<path fill="none" stroke="#aab0b6" d="M623.11,-323.21C648.75,-334.78 684.35,-350.83 712.84,-363.68"/>
<polygon fill="#aab0b6" stroke="#aab0b6" points="711.83,-365.53 718.16,-366.08 713.56,-361.7 711.83,-365.53"/>
</g>
<!-- C5 -->
<g id="node11" class="node">
<title>C5</title>
<path fill="#eeeeee" stroke="#999999" d="M249,-326C249,-326 216.5,-326 216.5,-326 210.5,-326 204.5,-320 204.5,-314 204.5,-314 204.5,-302 204.5,-302 204.5,-296 210.5,-290 216.5,-290 216.5,-290 249,-290 249,-290 255,-290 261,-296 261,-302 261,-302 261,-314 261,-314 261,-320 255,-326 249,-326"/>
<text xml:space="preserve" text-anchor="middle" x="232.75" y="-311.25" font-family="Helvetica,sans-Serif" font-size="10.00">C5 More</text>
<text xml:space="preserve" text-anchor="middle" x="232.75" y="-298.5" font-family="Helvetica,sans-Serif" font-size="10.00">sources</text>
</g>
<!-- C5&#45;&gt;C2 -->
<g id="edge17" class="edge">
<title>C5&#45;&gt;C2</title>
<path fill="none" stroke="#aab0b6" d="M261.19,-303.47C286.65,-299.27 325.22,-292.9 356.63,-287.71"/>
<polygon fill="#aab0b6" stroke="#aab0b6" points="356.96,-289.78 362.54,-286.73 356.28,-285.64 356.96,-289.78"/>
</g>
<!-- D2 -->
<g id="node13" class="node">
<title>D2</title>
<path fill="#cfe8cf" stroke="#2e7d32" d="M611.38,-137C611.38,-137 565.38,-137 565.38,-137 559.38,-137 553.38,-131 553.38,-125 553.38,-125 553.38,-113 553.38,-113 553.38,-107 559.38,-101 565.38,-101 565.38,-101 611.38,-101 611.38,-101 617.38,-101 623.38,-107 623.38,-113 623.38,-113 623.38,-125 623.38,-125 623.38,-131 617.38,-137 611.38,-137"/>
<text xml:space="preserve" text-anchor="middle" x="588.38" y="-122.25" font-family="Helvetica,sans-Serif" font-size="10.00">D2 Kineme</text>
<text xml:space="preserve" text-anchor="middle" x="588.38" y="-109.5" font-family="Helvetica,sans-Serif" font-size="10.00">alphabet</text>
</g>
<!-- D1&#45;&gt;D2 -->
<g id="edge18" class="edge">
<title>D1&#45;&gt;D2</title>
<path fill="none" stroke="#aab0b6" d="M450,-132.27C478.36,-129.53 516.83,-125.81 545.85,-123.01"/>
<polygon fill="#aab0b6" stroke="#aab0b6" points="545.73,-125.13 551.5,-122.46 545.33,-120.95 545.73,-125.13"/>
</g>
<!-- D2&#45;&gt;D3 -->
<g id="edge19" class="edge">
<title>D2&#45;&gt;D3</title>
<path fill="none" stroke="#aab0b6" d="M623.52,-117.2C646.91,-115.97 678.46,-114.3 705.34,-112.89"/>
<polygon fill="#aab0b6" stroke="#aab0b6" points="705.39,-114.99 711.27,-112.57 705.17,-110.79 705.39,-114.99"/>
</g>
<!-- D4 -->
<g id="node15" class="node">
<title>D4</title>
<path fill="#eeeeee" stroke="#999999" d="M794.25,-70C794.25,-70 728,-70 728,-70 722,-70 716,-64 716,-58 716,-58 716,-46 716,-46 716,-40 722,-34 728,-34 728,-34 794.25,-34 794.25,-34 800.25,-34 806.25,-40 806.25,-46 806.25,-46 806.25,-58 806.25,-58 806.25,-64 800.25,-70 794.25,-70"/>
<text xml:space="preserve" text-anchor="middle" x="761.12" y="-55.25" font-family="Helvetica,sans-Serif" font-size="10.00">D4 Grammar +</text>
<text xml:space="preserve" text-anchor="middle" x="761.12" y="-42.5" font-family="Helvetica,sans-Serif" font-size="10.00">renderer</text>
</g>
<!-- D2&#45;&gt;D4 -->
<g id="edge20" class="edge">
<title>D2&#45;&gt;D4</title>
<path fill="none" stroke="#aab0b6" d="M623.52,-105.6C647.92,-96.03 681.19,-82.97 708.78,-72.15"/>
<polygon fill="#aab0b6" stroke="#aab0b6" points="709.44,-74.14 714.26,-70 707.91,-70.23 709.44,-74.14"/>
</g>
<!-- D6 -->
<g id="node17" class="node">
<title>D6</title>
<path fill="#eeeeee" stroke="#999999" d="M784.12,-186C784.12,-186 738.12,-186 738.12,-186 732.12,-186 726.12,-180 726.12,-174 726.12,-174 726.12,-162 726.12,-162 726.12,-156 732.12,-150 738.12,-150 738.12,-150 784.12,-150 784.12,-150 790.12,-150 796.12,-156 796.12,-162 796.12,-162 796.12,-174 796.12,-174 796.12,-180 790.12,-186 784.12,-186"/>
<text xml:space="preserve" text-anchor="middle" x="761.12" y="-171.25" font-family="Helvetica,sans-Serif" font-size="10.00">D6 Kineme</text>
<text xml:space="preserve" text-anchor="middle" x="761.12" y="-158.5" font-family="Helvetica,sans-Serif" font-size="10.00">detectors</text>
</g>
<!-- D2&#45;&gt;D6 -->
<g id="edge21" class="edge">
<title>D2&#45;&gt;D6</title>
<path fill="none" stroke="#aab0b6" d="M623.52,-128.8C650.88,-136.65 689.39,-147.7 718.55,-156.07"/>
<polygon fill="#aab0b6" stroke="#aab0b6" points="717.95,-158.08 724.29,-157.72 719.11,-154.04 717.95,-158.08"/>
</g>
<!-- D5 -->
<g id="node16" class="node">
<title>D5</title>
<path fill="#eeeeee" stroke="#999999" d="M959.88,-99C959.88,-99 893.62,-99 893.62,-99 887.62,-99 881.62,-93 881.62,-87 881.62,-87 881.62,-75 881.62,-75 881.62,-69 887.62,-63 893.62,-63 893.62,-63 959.88,-63 959.88,-63 965.88,-63 971.88,-69 971.88,-75 971.88,-75 971.88,-87 971.88,-87 971.88,-93 965.88,-99 959.88,-99"/>
<text xml:space="preserve" text-anchor="middle" x="926.75" y="-84.25" font-family="Helvetica,sans-Serif" font-size="10.00">D5 Kote&#45;gaeshi</text>
<text xml:space="preserve" text-anchor="middle" x="926.75" y="-71.5" font-family="Helvetica,sans-Serif" font-size="10.00">trial</text>
</g>
<!-- D3&#45;&gt;D5 -->
<g id="edge22" class="edge">
<title>D3&#45;&gt;D5</title>
<path fill="none" stroke="#aab0b6" d="M809.45,-101.61C829.72,-98.02 853.43,-93.82 874.15,-90.15"/>
<polygon fill="#aab0b6" stroke="#aab0b6" points="874.3,-92.25 879.85,-89.14 873.57,-88.12 874.3,-92.25"/>
</g>
<!-- D4&#45;&gt;D5 -->
<g id="edge23" class="edge">
<title>D4&#45;&gt;D5</title>
<path fill="none" stroke="#aab0b6" d="M806.4,-59.85C827.24,-63.54 852.22,-67.97 873.92,-71.81"/>
<polygon fill="#aab0b6" stroke="#aab0b6" points="873.39,-73.85 879.66,-72.83 874.12,-69.72 873.39,-73.85"/>
</g>
<!-- G2 -->
<g id="node27" class="node">
<title>G2</title>
<path fill="#eeeeee" stroke="#999999" d="M1261.88,-359C1261.88,-359 1217.38,-359 1217.38,-359 1211.38,-359 1205.38,-353 1205.38,-347 1205.38,-347 1205.38,-335 1205.38,-335 1205.38,-329 1211.38,-323 1217.38,-323 1217.38,-323 1261.88,-323 1261.88,-323 1267.88,-323 1273.88,-329 1273.88,-335 1273.88,-335 1273.88,-347 1273.88,-347 1273.88,-353 1267.88,-359 1261.88,-359"/>
<text xml:space="preserve" text-anchor="middle" x="1239.62" y="-344.25" font-family="Helvetica,sans-Serif" font-size="10.00">G2 Live</text>
<text xml:space="preserve" text-anchor="middle" x="1239.62" y="-331.5" font-family="Helvetica,sans-Serif" font-size="10.00">annotation</text>
</g>
<!-- D6&#45;&gt;G2 -->
<g id="edge38" class="edge">
<title>D6&#45;&gt;G2</title>
<path fill="none" stroke="#aab0b6" d="M796.39,-180.44C882.18,-211.59 1105.91,-292.81 1198.06,-326.27"/>
<polygon fill="#aab0b6" stroke="#aab0b6" points="1197.21,-328.2 1203.56,-328.27 1198.64,-324.25 1197.21,-328.2"/>
</g>
<!-- E1 -->
<g id="node18" class="node">
<title>E1</title>
<path fill="#eeeeee" stroke="#999999" d="M431.12,-408C431.12,-408 389.62,-408 389.62,-408 383.62,-408 377.62,-402 377.62,-396 377.62,-396 377.62,-384 377.62,-384 377.62,-378 383.62,-372 389.62,-372 389.62,-372 431.12,-372 431.12,-372 437.12,-372 443.12,-378 443.12,-384 443.12,-384 443.12,-396 443.12,-396 443.12,-402 437.12,-408 431.12,-408"/>
<text xml:space="preserve" text-anchor="middle" x="410.38" y="-393.25" font-family="Helvetica,sans-Serif" font-size="10.00">E1 Pose</text>
<text xml:space="preserve" text-anchor="middle" x="410.38" y="-380.5" font-family="Helvetica,sans-Serif" font-size="10.00">extraction</text>
</g>
<!-- E2 -->
<g id="node19" class="node">
<title>E2</title>
<path fill="#eeeeee" stroke="#999999" d="M629,-466C629,-466 547.75,-466 547.75,-466 541.75,-466 535.75,-460 535.75,-454 535.75,-454 535.75,-442 535.75,-442 535.75,-436 541.75,-430 547.75,-430 547.75,-430 629,-430 629,-430 635,-430 641,-436 641,-442 641,-442 641,-454 641,-454 641,-460 635,-466 629,-466"/>
<text xml:space="preserve" text-anchor="middle" x="588.38" y="-451.25" font-family="Helvetica,sans-Serif" font-size="10.00">E2 Representation</text>
<text xml:space="preserve" text-anchor="middle" x="588.38" y="-438.5" font-family="Helvetica,sans-Serif" font-size="10.00">+ primitives</text>
</g>
<!-- E1&#45;&gt;E2 -->
<g id="edge24" class="edge">
<title>E1&#45;&gt;E2</title>
<path fill="none" stroke="#aab0b6" d="M443.25,-400.5C466.9,-408.3 499.84,-419.15 528.25,-428.52"/>
<polygon fill="#aab0b6" stroke="#aab0b6" points="527.58,-430.51 533.93,-430.39 528.89,-426.52 527.58,-430.51"/>
</g>
<!-- E1&#45;&gt;E3 -->
<g id="edge25" class="edge">
<title>E1&#45;&gt;E3</title>
<path fill="none" stroke="#aab0b6" d="M443.25,-390C470.76,-390 510.83,-390 541.75,-390"/>
<polygon fill="#aab0b6" stroke="#aab0b6" points="541.48,-392.1 547.48,-390 541.48,-387.9 541.48,-392.1"/>
</g>
<!-- E1&#45;&gt;F1 -->
<g id="edge27" class="edge">
<title>E1&#45;&gt;F1</title>
<path fill="none" stroke="#aab0b6" d="M443.47,-406.62C450.3,-410.48 457.37,-414.71 463.75,-419 497.85,-441.93 497,-463.33 535.75,-477 593.71,-497.44 664.35,-480.35 710.69,-463.87"/>
<polygon fill="#aab0b6" stroke="#aab0b6" points="711.29,-465.89 716.21,-461.86 709.85,-461.94 711.29,-465.89"/>
</g>
<!-- G1 -->
<g id="node26" class="node">
<title>G1</title>
<path fill="#eeeeee" stroke="#999999" d="M1106.75,-475C1106.75,-475 1056.25,-475 1056.25,-475 1050.25,-475 1044.25,-469 1044.25,-463 1044.25,-463 1044.25,-451 1044.25,-451 1044.25,-445 1050.25,-439 1056.25,-439 1056.25,-439 1106.75,-439 1106.75,-439 1112.75,-439 1118.75,-445 1118.75,-451 1118.75,-451 1118.75,-463 1118.75,-463 1118.75,-469 1112.75,-475 1106.75,-475"/>
<text xml:space="preserve" text-anchor="middle" x="1081.5" y="-460.25" font-family="Helvetica,sans-Serif" font-size="10.00">G1 Player +</text>
<text xml:space="preserve" text-anchor="middle" x="1081.5" y="-447.5" font-family="Helvetica,sans-Serif" font-size="10.00">overlay</text>
</g>
<!-- E1&#45;&gt;G1 -->
<g id="edge26" class="edge">
<title>E1&#45;&gt;G1</title>
<path fill="none" stroke="#aab0b6" d="M443.47,-405.56C450.44,-409.53 457.57,-414.08 463.75,-419 501.19,-448.77 492.05,-479.54 535.75,-499 577.36,-517.53 721.62,-545.75 980.25,-496 999.52,-492.29 1019.85,-485.06 1037.14,-477.82"/>
<polygon fill="#aab0b6" stroke="#aab0b6" points="1037.77,-479.84 1042.46,-475.54 1036.11,-475.98 1037.77,-479.84"/>
</g>
<!-- E2&#45;&gt;D6 -->
<g id="edge28" class="edge">
<title>E2&#45;&gt;D6</title>
<path fill="none" stroke="#aab0b6" d="M635.9,-429.55C640.67,-426.48 645.16,-422.98 649,-419 713.2,-352.45 743.92,-242.58 755.03,-193.3"/>
<polygon fill="#aab0b6" stroke="#aab0b6" points="757.03,-193.99 756.26,-187.68 752.93,-193.09 757.03,-193.99"/>
</g>
<!-- E2&#45;&gt;F1 -->
<g id="edge29" class="edge">
<title>E2&#45;&gt;F1</title>
<path fill="none" stroke="#aab0b6" d="M641.07,-446.49C662.32,-445.86 686.88,-445.14 708.16,-444.52"/>
<polygon fill="#aab0b6" stroke="#aab0b6" points="708.09,-446.62 714.02,-444.35 707.96,-442.43 708.09,-446.62"/>
</g>
<!-- E4&#45;&gt;F1 -->
<g id="edge32" class="edge">
<title>E4&#45;&gt;F1</title>
<path fill="none" stroke="#aab0b6" d="M435.49,-466.3C459.45,-483.23 497.98,-507.22 535.75,-517 584.48,-529.61 600.82,-531.57 649,-517 681.85,-507.06 713.88,-483.86 735.04,-466.07"/>
<polygon fill="#aab0b6" stroke="#aab0b6" points="736.38,-467.69 739.57,-462.19 733.65,-464.5 736.38,-467.69"/>
</g>
<!-- F1&#45;&gt;F2 -->
<g id="edge33" class="edge">
<title>F1&#45;&gt;F2</title>
<path fill="none" stroke="#aab0b6" d="M806.4,-427.3C827.24,-419.92 852.23,-411.06 873.94,-403.36"/>
<polygon fill="#aab0b6" stroke="#aab0b6" points="874.49,-405.4 879.44,-401.42 873.08,-401.44 874.49,-405.4"/>
</g>
<!-- F3 -->
<g id="node24" class="node">
<title>F3</title>
<path fill="#eeeeee" stroke="#999999" d="M950.12,-461C950.12,-461 903.38,-461 903.38,-461 897.38,-461 891.38,-455 891.38,-449 891.38,-449 891.38,-437 891.38,-437 891.38,-431 897.38,-425 903.38,-425 903.38,-425 950.12,-425 950.12,-425 956.12,-425 962.12,-431 962.12,-437 962.12,-437 962.12,-449 962.12,-449 962.12,-455 956.12,-461 950.12,-461"/>
<text xml:space="preserve" text-anchor="middle" x="926.75" y="-446.25" font-family="Helvetica,sans-Serif" font-size="10.00">F3 Deep</text>
<text xml:space="preserve" text-anchor="middle" x="926.75" y="-433.5" font-family="Helvetica,sans-Serif" font-size="10.00">embedding</text>
</g>
<!-- F1&#45;&gt;F3 -->
<g id="edge34" class="edge">
<title>F1&#45;&gt;F3</title>
<path fill="none" stroke="#aab0b6" d="M806.4,-443C830.4,-443 859.9,-443 883.57,-443"/>
<polygon fill="#aab0b6" stroke="#aab0b6" points="883.52,-445.1 889.52,-443 883.52,-440.9 883.52,-445.1"/>
</g>
<!-- F2&#45;&gt;G2 -->
<g id="edge35" class="edge">
<title>F2&#45;&gt;G2</title>
<path fill="none" stroke="#aab0b6" d="M972.62,-378.65C1033.09,-370.09 1139.84,-354.98 1198.03,-346.75"/>
<polygon fill="#aab0b6" stroke="#aab0b6" points="1198.08,-348.86 1203.73,-345.94 1197.49,-344.7 1198.08,-348.86"/>
</g>
<!-- G3 -->
<g id="node28" class="node">
<title>G3</title>
<path fill="#eeeeee" stroke="#999999" d="M1276.5,-417C1276.5,-417 1202.75,-417 1202.75,-417 1196.75,-417 1190.75,-411 1190.75,-405 1190.75,-405 1190.75,-393 1190.75,-393 1190.75,-387 1196.75,-381 1202.75,-381 1202.75,-381 1276.5,-381 1276.5,-381 1282.5,-381 1288.5,-387 1288.5,-393 1288.5,-393 1288.5,-405 1288.5,-405 1288.5,-411 1282.5,-417 1276.5,-417"/>
<text xml:space="preserve" text-anchor="middle" x="1239.62" y="-402.25" font-family="Helvetica,sans-Serif" font-size="10.00">G3 Lookup demo</text>
<text xml:space="preserve" text-anchor="middle" x="1239.62" y="-389.5" font-family="Helvetica,sans-Serif" font-size="10.00">(flagship)</text>
</g>
<!-- F2&#45;&gt;G3 -->
<g id="edge36" class="edge">
<title>F2&#45;&gt;G3</title>
<path fill="none" stroke="#aab0b6" d="M972.55,-384.75C1011.28,-384.76 1068.74,-385.32 1118.75,-388 1139.75,-389.13 1162.77,-391.07 1182.97,-393.01"/>
<polygon fill="#aab0b6" stroke="#aab0b6" points="1182.59,-395.08 1188.77,-393.57 1183,-390.9 1182.59,-395.08"/>
</g>
<!-- F2&#45;&gt;G4 -->
<g id="edge37" class="edge">
<title>F2&#45;&gt;G4</title>
<path fill="none" stroke="#aab0b6" d="M965.42,-403.34C970.63,-406.57 975.74,-410.14 980.25,-414 1011.07,-440.34 1006.45,-458.52 1036.25,-486 1038.53,-488.1 1040.98,-490.15 1043.51,-492.13"/>
<polygon fill="#aab0b6" stroke="#aab0b6" points="1042.24,-493.81 1048.31,-495.7 1044.75,-490.44 1042.24,-493.81"/>
</g>
<!-- G5 -->
<g id="node30" class="node">
<title>G5</title>
<path fill="#eeeeee" stroke="#999999" d="M1261.88,-475C1261.88,-475 1217.38,-475 1217.38,-475 1211.38,-475 1205.38,-469 1205.38,-463 1205.38,-463 1205.38,-451 1205.38,-451 1205.38,-445 1211.38,-439 1217.38,-439 1217.38,-439 1261.88,-439 1261.88,-439 1267.88,-439 1273.88,-445 1273.88,-451 1273.88,-451 1273.88,-463 1273.88,-463 1273.88,-469 1267.88,-475 1261.88,-475"/>
<text xml:space="preserve" text-anchor="middle" x="1239.62" y="-460.25" font-family="Helvetica,sans-Serif" font-size="10.00">G5 Search:</text>
<text xml:space="preserve" text-anchor="middle" x="1239.62" y="-447.5" font-family="Helvetica,sans-Serif" font-size="10.00">qualitative</text>
</g>
<!-- F3&#45;&gt;G5 -->
<g id="edge43" class="edge">
<title>F3&#45;&gt;G5</title>
<path fill="none" stroke="#aab0b6" d="M962.32,-436.99C983.57,-433.6 1011.4,-429.71 1036.25,-428 1072.83,-425.48 1082.34,-423.66 1118.75,-428 1145.42,-431.18 1174.73,-438.21 1197.69,-444.54"/>
<polygon fill="#aab0b6" stroke="#aab0b6" points="1197.11,-446.56 1203.46,-446.16 1198.25,-442.52 1197.11,-446.56"/>
</g>
<!-- G1&#45;&gt;G2 -->
<g id="edge39" class="edge">
<title>G1&#45;&gt;G2</title>
<path fill="none" stroke="#aab0b6" d="M1103.42,-438.81C1124.76,-420.58 1159.15,-392.13 1190.75,-370 1193.93,-367.77 1197.29,-365.53 1200.69,-363.34"/>
<polygon fill="#aab0b6" stroke="#aab0b6" points="1201.6,-365.24 1205.55,-360.26 1199.36,-361.7 1201.6,-365.24"/>
</g>
<!-- G1&#45;&gt;G3 -->
<g id="edge40" class="edge">
<title>G1&#45;&gt;G3</title>
<path fill="none" stroke="#aab0b6" d="M1119.1,-443.4C1138.3,-436.27 1162.2,-427.39 1183.58,-419.45"/>
<polygon fill="#aab0b6" stroke="#aab0b6" points="1184.11,-421.49 1189,-417.44 1182.64,-417.56 1184.11,-421.49"/>
</g>
<!-- G3&#45;&gt;G7 -->
<g id="edge47" class="edge">
<title>G3&#45;&gt;G7</title>
<path fill="none" stroke="#aab0b6" d="M1288.83,-390.53C1308.93,-387 1332.33,-382.89 1352.89,-379.28"/>
<polygon fill="#aab0b6" stroke="#aab0b6" points="1353,-381.4 1358.55,-378.29 1352.27,-377.26 1353,-381.4"/>
</g>
<!-- G4&#45;&gt;G5 -->
<g id="edge44" class="edge">
<title>G4&#45;&gt;G5</title>
<path fill="none" stroke="#aab0b6" d="M1115.99,-502.56C1139.99,-493.64 1172.44,-481.59 1197.93,-472.12"/>
<polygon fill="#aab0b6" stroke="#aab0b6" points="1198.61,-474.11 1203.5,-470.05 1197.14,-470.17 1198.61,-474.11"/>
</g>
<!-- G8 -->
<g id="node33" class="node">
<title>G8</title>
<path fill="#eeeeee" stroke="#999999" d="M1266,-533C1266,-533 1213.25,-533 1213.25,-533 1207.25,-533 1201.25,-527 1201.25,-521 1201.25,-521 1201.25,-509 1201.25,-509 1201.25,-503 1207.25,-497 1213.25,-497 1213.25,-497 1266,-497 1266,-497 1272,-497 1278,-503 1278,-509 1278,-509 1278,-521 1278,-521 1278,-527 1272,-533 1266,-533"/>
<text xml:space="preserve" text-anchor="middle" x="1239.62" y="-518.25" font-family="Helvetica,sans-Serif" font-size="10.00">G8 Compare</text>
<text xml:space="preserve" text-anchor="middle" x="1239.62" y="-505.5" font-family="Helvetica,sans-Serif" font-size="10.00">demo</text>
</g>
<!-- G4&#45;&gt;G8 -->
<g id="edge45" class="edge">
<title>G4&#45;&gt;G8</title>
<path fill="none" stroke="#aab0b6" d="M1115.99,-515C1138.57,-515 1168.62,-515 1193.32,-515"/>
<polygon fill="#aab0b6" stroke="#aab0b6" points="1193.29,-517.1 1199.29,-515 1193.29,-512.9 1193.29,-517.1"/>
</g>
<!-- G5&#45;&gt;G6 -->
<g id="edge46" class="edge">
<title>G5&#45;&gt;G6</title>
<path fill="none" stroke="#aab0b6" d="M1274.04,-453.96C1300.08,-451.6 1336.37,-448.3 1364.27,-445.77"/>
<polygon fill="#aab0b6" stroke="#aab0b6" points="1364.24,-447.88 1370.03,-445.25 1363.86,-443.7 1364.24,-447.88"/>
</g>
</g>
</svg>
<svg x="572.5" y="818.0" width="332.0" height="44.0"
 viewBox="0.00 0.00 332.00 44.00" xmlns="http://www.w3.org/2000/svg" xmlns:xlink="http://www.w3.org/1999/xlink">
<g id="graph0" class="graph" transform="scale(1 1) rotate(0) translate(4 40)">
<title>L</title>
<polygon fill="white" stroke="none" points="-4,4 -4,-40 328,-40 328,4 -4,4"/>
<!-- d -->
<g id="node1" class="node">
<title>d</title>
<path fill="#cfe8cf" stroke="#2e7d32" d="M42,-36C42,-36 12,-36 12,-36 6,-36 0,-30 0,-24 0,-24 0,-12 0,-12 0,-6 6,0 12,0 12,0 42,0 42,0 48,0 54,-6 54,-12 54,-12 54,-24 54,-24 54,-30 48,-36 42,-36"/>
<text xml:space="preserve" text-anchor="middle" x="27" y="-13.72" font-family="Helvetica,sans-Serif" font-size="12.00">done</text>
</g>
<!-- a -->
<g id="node2" class="node">
<title>a</title>
<path fill="#fff3c4" stroke="#b8860b" d="M132,-36C132,-36 102,-36 102,-36 96,-36 90,-30 90,-24 90,-24 90,-12 90,-12 90,-6 96,0 102,0 102,0 132,0 132,0 138,0 144,-6 144,-12 144,-12 144,-24 144,-24 144,-30 138,-36 132,-36"/>
<text xml:space="preserve" text-anchor="middle" x="117" y="-13.72" font-family="Helvetica,sans-Serif" font-size="12.00">active</text>
</g>
<!-- d&#45;&gt;a -->
<!-- n -->
<g id="node3" class="node">
<title>n</title>
<path fill="#cfe0f5" stroke="#1565c0" d="M222,-36C222,-36 192,-36 192,-36 186,-36 180,-30 180,-24 180,-24 180,-12 180,-12 180,-6 186,0 192,0 192,0 222,0 222,0 228,0 234,-6 234,-12 234,-12 234,-24 234,-24 234,-30 228,-36 222,-36"/>
<text xml:space="preserve" text-anchor="middle" x="207" y="-13.72" font-family="Helvetica,sans-Serif" font-size="12.00">next</text>
</g>
<!-- a&#45;&gt;n -->
<!-- f -->
<g id="node4" class="node">
<title>f</title>
<path fill="#eeeeee" stroke="#999999" d="M312,-36C312,-36 282,-36 282,-36 276,-36 270,-30 270,-24 270,-24 270,-12 270,-12 270,-6 276,0 282,0 282,0 312,0 312,0 318,0 324,-6 324,-12 324,-12 324,-24 324,-24 324,-30 318,-36 312,-36"/>
<text xml:space="preserve" text-anchor="middle" x="297" y="-13.72" font-family="Helvetica,sans-Serif" font-size="12.00">future</text>
</g>
<!-- n&#45;&gt;f -->
</g>
</svg>
</svg>
